<?xml version="1.0" encoding="UTF-8"?>
<svg version="1.1" xmlns="http://www.w3.org/2000/svg" width="608" height="608">
<path d="M0 0 C4.09681374 1.37674328 6.94598119 3.24445391 9.19140625 6.984375 C11.83530426 13.67118433 11.50169155 20.49605306 8.6875 27.0625 C6.76581707 29.26887669 5.78229507 29.44354099 3 30 C2.67 30.99 2.34 31.98 2 33 C0.22265625 33.94921875 0.22265625 33.94921875 -1.9375 34.6875 C-3.00291016 35.06455078 -3.00291016 35.06455078 -4.08984375 35.44921875 C-6 36 -6 36 -8 36 C-8 36.66 -8 37.32 -8 38 C-11.465 38.495 -11.465 38.495 -15 39 C-15 39.66 -15 40.32 -15 41 C-17.6226232 42.33819498 -20.24786599 43.6707151 -22.875 45 C-23.62136719 45.3815625 -24.36773438 45.763125 -25.13671875 46.15625 C-26.20986328 46.69765625 -26.20986328 46.69765625 -27.3046875 47.25 C-27.96452637 47.58515625 -28.62436523 47.9203125 -29.30419922 48.265625 C-31 49 -31 49 -33 49 C-33 49.66 -33 50.32 -33 51 C-33.61488281 51.26554687 -34.22976563 51.53109375 -34.86328125 51.8046875 C-35.67152344 52.15789062 -36.47976563 52.51109375 -37.3125 52.875 C-38.11300781 53.22304687 -38.91351562 53.57109375 -39.73828125 53.9296875 C-42.1961834 55.02571894 -42.1961834 55.02571894 -45 57 C-46.32 57 -47.64 57 -49 57 C-49 57.66 -49 58.32 -49 59 C-50.74552473 59.84266711 -52.4966208 60.67380038 -54.25 61.5 C-55.22453125 61.9640625 -56.1990625 62.428125 -57.203125 62.90625 C-60 64 -60 64 -64 64 C-64 64.66 -64 65.32 -64 66 C-69.625 69 -69.625 69 -73 69 C-73 69.66 -73 70.32 -73 71 C-77.64203897 73.53309233 -81.65155992 75.46515599 -87 76 C-87 76.66 -87 77.32 -87 78 C-88.93370231 79.00732399 -90.87210306 80.00563288 -92.8125 81 C-93.89144531 81.556875 -94.97039062 82.11375 -96.08203125 82.6875 C-99 84 -99 84 -102 84 C-102 84.66 -102 85.32 -102 86 C-103.578076 86.84324672 -105.1627042 87.67423918 -106.75 88.5 C-107.63171875 88.9640625 -108.5134375 89.428125 -109.421875 89.90625 C-112 91 -112 91 -116 91 C-116 91.66 -116 92.32 -116 93 C-117.43429001 93.67354499 -118.87257057 94.33859701 -120.3125 95 C-121.11300781 95.37125 -121.91351563 95.7425 -122.73828125 96.125 C-125 97 -125 97 -128 97 C-128 97.66 -128 98.32 -128 99 C-141.875 105.9375 -141.875 105.9375 -143.78515625 106.88671875 C-145.54897996 107.77329681 -147.30515792 108.67508168 -149.05859375 109.58203125 C-150.13238281 110.13246094 -151.20617187 110.68289062 -152.3125 111.25 C-153.82263672 112.03117187 -153.82263672 112.03117187 -155.36328125 112.828125 C-158 114 -158 114 -161 114 C-161 114.66 -161 115.32 -161 116 C-160.41605469 116.12761719 -159.83210938 116.25523437 -159.23046875 116.38671875 C-157.05232043 116.98561417 -155.30645402 117.76327052 -153.3125 118.8125 C-148.950887 121.0549112 -144.49581578 123.04348758 -140 125 C-140 125.66 -140 126.32 -140 127 C-139.01 127.0928125 -139.01 127.0928125 -138 127.1875 C-134.46062924 128.14607958 -131.98183172 129.7941027 -128.9375 131.7890625 C-126.71909953 133.17556279 -124.47165764 134.15036769 -122 135 C-122 135.66 -122 136.32 -122 137 C-120.68 137 -119.36 137 -118 137 C-118 137.66 -118 138.32 -118 139 C-116.9790625 139.1546875 -116.9790625 139.1546875 -115.9375 139.3125 C-112.37084011 140.14725019 -109.33777806 141.49472754 -106 143 C-106 143.66 -106 144.32 -106 145 C-105.34 145.0825 -104.68 145.165 -104 145.25 C-100.00960837 146.24759791 -96.61450357 148.07166683 -93 150 C-93 150.66 -93 151.32 -93 152 C-91.35 152 -89.7 152 -88 152 C-88 152.66 -88 153.32 -88 154 C-87.07767578 154.30744141 -87.07767578 154.30744141 -86.13671875 154.62109375 C-82.7578125 155.74739583 -79.37890625 156.87369792 -76 158 C-76 158.66 -76 159.32 -76 160 C-75.21625 160.144375 -74.4325 160.28875 -73.625 160.4375 C-71 161 -71 161 -69 162 C-69 162.66 -69 163.32 -69 164 C-68.18660156 164.24878906 -67.37320313 164.49757812 -66.53515625 164.75390625 C-62.3605483 166.22539789 -58.43057791 168.03686466 -54.4375 169.9375 C-53.69564453 170.28490234 -52.95378906 170.63230469 -52.18945312 170.99023438 C-48.32427864 172.81784582 -44.65201232 174.7702235 -41 177 C-38.90495738 178.08037957 -36.80047324 179.14262312 -34.6875 180.1875 C-33.61886719 180.71730469 -32.55023437 181.24710938 -31.44921875 181.79296875 C-30.64097656 182.19128906 -29.83273437 182.58960938 -29 183 C-29 183.66 -29 184.32 -29 185 C-28.34 185.0825 -27.68 185.165 -27 185.25 C-22.99736664 186.25065834 -19.6355272 188.08656463 -16 190 C-14.845 190.5775 -13.69 191.155 -12.5 191.75 C-11.2625 192.36875 -11.2625 192.36875 -10 193 C-10 193.66 -10 194.32 -10 195 C-8.68 195 -7.36 195 -6 195 C-6 195.66 -6 196.32 -6 197 C-5.154375 197.0825 -4.30875 197.165 -3.4375 197.25 C0.62439162 198.1362309 3.92247425 199.18265155 7 202 C10.63284407 207.6776163 11.56260827 213.12168083 10.5625 219.7265625 C9.81240019 222.75821588 8.61322736 225.33466785 7 228 C6.01 228 5.02 228 4 228 C4 228.66 4 229.32 4 230 C-1.52252933 232.47060523 -6.23165079 232.48416412 -12 231 C-16.840936 229.02469046 -21.42759966 226.5233852 -26 224 C-26 223.34 -26 222.68 -26 222 C-27.03060547 221.85304688 -27.03060547 221.85304688 -28.08203125 221.703125 C-31.60943408 220.85314841 -34.46233685 219.41133824 -37.6875 217.75 C-38.9231551 217.11844658 -40.15883236 216.4869365 -41.39453125 215.85546875 C-42.00119629 215.54270996 -42.60786133 215.22995117 -43.23291016 214.90771484 C-45.76966599 213.60463966 -48.32205919 212.33350762 -50.875 211.0625 C-52.25 210.375 -53.625 209.6875 -55 209 C-55 208.34 -55 207.68 -55 207 C-55.67417969 206.90847656 -56.34835937 206.81695312 -57.04296875 206.72265625 C-60.75097572 205.81647225 -63.94828493 204.18716901 -67.3125 202.4375 C-67.95767578 202.10814453 -68.60285156 201.77878906 -69.26757812 201.43945312 C-70.84785228 200.63175745 -72.42432105 199.81662387 -74 199 C-74 198.34 -74 197.68 -74 197 C-75.65 197 -77.3 197 -79 197 C-79 196.34 -79 195.68 -79 195 C-79.99 195 -80.98 195 -82 195 C-82 194.34 -82 193.68 -82 193 C-82.85851562 192.80857422 -82.85851562 192.80857422 -83.734375 192.61328125 C-90.47036755 190.78991775 -96.80763211 187.1524782 -103 184 C-103 183.34 -103 182.68 -103 182 C-104.65 182 -106.3 182 -108 182 C-108 181.34 -108 180.68 -108 180 C-108.61875 179.855625 -109.2375 179.71125 -109.875 179.5625 C-112 179 -112 179 -114 178 C-114 177.34 -114 176.68 -114 176 C-115.0209375 175.8453125 -115.0209375 175.8453125 -116.0625 175.6875 C-119.62915989 174.85274981 -122.66222194 173.50527246 -126 172 C-126 171.34 -126 170.68 -126 170 C-127.32 170 -128.64 170 -130 170 C-130 169.34 -130 168.68 -130 168 C-131.05767578 167.83951172 -131.05767578 167.83951172 -132.13671875 167.67578125 C-135.3473505 166.9180196 -137.88482961 165.70313539 -140.8125 164.1875 C-141.85535156 163.65253906 -142.89820313 163.11757812 -143.97265625 162.56640625 C-145.47119141 161.79103516 -145.47119141 161.79103516 -147 161 C-148.58188163 160.20543656 -150.16497508 159.41327442 -151.75 158.625 C-153.35875 157.820625 -153.35875 157.820625 -155 157 C-155 156.34 -155 155.68 -155 155 C-156.0209375 154.8453125 -156.0209375 154.8453125 -157.0625 154.6875 C-160.62915989 153.85274981 -163.66222194 152.50527246 -167 151 C-167 150.34 -167 149.68 -167 149 C-167.73992187 148.87496094 -168.47984375 148.74992188 -169.2421875 148.62109375 C-171.85349015 148.03299584 -173.76160272 147.28780376 -176.125 146.0625 C-177.40503906 145.40314453 -177.40503906 145.40314453 -178.7109375 144.73046875 C-179.79632813 144.15941406 -180.88171875 143.58835938 -182 143 C-182.73250977 142.61537598 -183.46501953 142.23075195 -184.21972656 141.83447266 C-187.55618232 140.08226687 -190.89198542 138.32890919 -194.22314453 136.56665039 C-197.60259247 134.7794224 -200.98193243 133.00897162 -204.40625 131.30859375 C-208.42309253 129.2820241 -211.26769866 127.46460268 -213.3125 123.375 C-214.76614784 116.23891061 -214.88219862 110.07536294 -211.20703125 103.62109375 C-209.47370555 101.29316441 -207.62621517 100.18179683 -205 99 C-203.9790625 98.4121875 -203.9790625 98.4121875 -202.9375 97.8125 C-201 97 -201 97 -197 97 C-197 96.34 -197 95.68 -197 95 C-194.21128823 93.66042079 -191.41856938 92.32941565 -188.625 91 C-187.8309375 90.6184375 -187.036875 90.236875 -186.21875 89.84375 C-185.45820313 89.4828125 -184.69765625 89.121875 -183.9140625 88.75 C-182.8614624 88.24726563 -182.8614624 88.24726563 -181.78759766 87.734375 C-180 87 -180 87 -178 87 C-178 86.34 -178 85.68 -178 85 C-177.319375 84.7525 -176.63875 84.505 -175.9375 84.25 C-173.58282768 83.24801178 -171.60776514 82.19399735 -169.4375 80.875 C-166 79 -166 79 -162 79 C-162 78.34 -162 77.68 -162 77 C-159.35261084 75.5393715 -158.10551666 75 -155 75 C-155 74.34 -155 73.68 -155 73 C-152.69 72.67 -150.38 72.34 -148 72 C-148 71.34 -148 70.68 -148 70 C-144.535 69.01 -144.535 69.01 -141 68 C-141 67.34 -141 66.68 -141 66 C-140.37432129 65.70754395 -139.74864258 65.41508789 -139.10400391 65.11376953 C-136.27555438 63.78864014 -133.45026267 62.45690955 -130.625 61.125 C-129.64015625 60.66480469 -128.6553125 60.20460937 -127.640625 59.73046875 C-126.69960938 59.28574219 -125.75859375 58.84101562 -124.7890625 58.3828125 C-123.91975098 57.97434082 -123.05043945 57.56586914 -122.15478516 57.14501953 C-119.87128896 56.06636492 -119.87128896 56.06636492 -118 54 C-116.68 54 -115.36 54 -114 54 C-114 53.34 -114 52.68 -114 52 C-112.421924 51.15675328 -110.8372958 50.32576082 -109.25 49.5 C-108.36828125 49.0359375 -107.4865625 48.571875 -106.578125 48.09375 C-104 47 -104 47 -100 47 C-100 46.34 -100 45.68 -100 45 C-99.27554688 44.67386719 -98.55109375 44.34773438 -97.8046875 44.01171875 C-96.83789062 43.57472656 -95.87109375 43.13773438 -94.875 42.6875 C-93.92367187 42.25824219 -92.97234375 41.82898438 -91.9921875 41.38671875 C-88.30475813 39.67779261 -84.68204411 37.85583996 -81.06005859 36.01293945 C-78.95797703 34.9436025 -76.85402792 33.87800132 -74.75 32.8125 C-74.03070312 32.44447266 -73.31140625 32.07644531 -72.5703125 31.69726562 C-67.22582328 29 -67.22582328 29 -65 29 C-65 28.34 -65 27.68 -65 27 C-64.34773437 26.74605469 -63.69546875 26.49210937 -63.0234375 26.23046875 C-59.10334593 24.68671587 -55.27110664 23.13555332 -51.5 21.25 C-49 20 -49 20 -47 20 C-47 19.34 -47 18.68 -47 18 C-45.56570999 17.32645501 -44.12742943 16.66140299 -42.6875 16 C-41.48673828 15.443125 -41.48673828 15.443125 -40.26171875 14.875 C-38 14 -38 14 -35 14 C-35 13.34 -35 12.68 -35 12 C-34.37955811 11.70754395 -33.75911621 11.41508789 -33.11987305 11.11376953 C-30.30791964 9.78662649 -27.49769754 8.45585676 -24.6875 7.125 C-23.71103516 6.66480469 -22.73457031 6.20460938 -21.72851562 5.73046875 C-20.79072266 5.28574219 -19.85292969 4.84101562 -18.88671875 4.3828125 C-18.02264404 3.97434082 -17.15856934 3.56586914 -16.26831055 3.14501953 C-10.21625286 0.09000387 -6.92795147 -0.88844125 0 0 Z " fill="#002278" transform="translate(595,59)"/>
<path d="M0 0 C1.83645053 0.93434908 3.66287402 1.88836338 5.48706055 2.84643555 C5.48706055 3.50643555 5.48706055 4.16643555 5.48706055 4.84643555 C6.14706055 4.92893555 6.80706055 5.01143555 7.48706055 5.09643555 C10.7109186 5.90240006 13.24551024 7.14596043 16.1784668 8.6706543 C22.79421173 12.04009461 29.64925704 14.95936296 36.48706055 17.84643555 C36.48706055 18.50643555 36.48706055 19.16643555 36.48706055 19.84643555 C37.43581055 19.99081055 38.38456055 20.13518555 39.36206055 20.28393555 C42.48706055 20.84643555 42.48706055 20.84643555 44.48706055 21.84643555 C44.48706055 22.50643555 44.48706055 23.16643555 44.48706055 23.84643555 C45.16768555 23.94956055 45.84831055 24.05268555 46.54956055 24.15893555 C50.11622043 24.99368573 53.14928249 26.34116309 56.48706055 27.84643555 C56.48706055 28.50643555 56.48706055 29.16643555 56.48706055 29.84643555 C57.33268555 29.92893555 58.17831055 30.01143555 59.04956055 30.09643555 C62.02745876 30.74615879 63.58191286 31.33818336 66.11206055 32.84643555 C68.77112915 34.42217991 70.5072763 35.36967007 73.48706055 35.84643555 C73.48706055 36.50643555 73.48706055 37.16643555 73.48706055 37.84643555 C74.0387793 37.96889648 74.59049805 38.09135742 75.15893555 38.2175293 C77.78297309 38.92637165 80.22075585 39.8825481 82.73706055 40.90893555 C83.6290918 41.27116211 84.52112305 41.63338867 85.44018555 42.0065918 C86.1156543 42.28374023 86.79112305 42.56088867 87.48706055 42.84643555 C87.48706055 43.50643555 87.48706055 44.16643555 87.48706055 44.84643555 C88.14706055 44.94956055 88.80706055 45.05268555 89.48706055 45.15893555 C93.32547063 46.03857119 96.81802745 47.41613451 100.48706055 48.84643555 C100.48706055 49.50643555 100.48706055 50.16643555 100.48706055 50.84643555 C101.10194336 51.05139648 101.71682617 51.25635742 102.3503418 51.4675293 C105.72924805 52.59383138 109.1081543 53.72013346 112.48706055 54.84643555 C112.48706055 55.50643555 112.48706055 56.16643555 112.48706055 56.84643555 C113.11354492 57.05139648 113.7400293 57.25635742 114.38549805 57.4675293 C115.20276367 57.73694336 116.0200293 58.00635742 116.86206055 58.28393555 C117.67416992 58.55077148 118.4862793 58.81760742 119.32299805 59.0925293 C121.48706055 59.84643555 121.48706055 59.84643555 123.48706055 60.84643555 C123.48706055 61.50643555 123.48706055 62.16643555 123.48706055 62.84643555 C124.47706055 62.92893555 125.46706055 63.01143555 126.48706055 63.09643555 C130.96163003 63.70951562 134.5827674 65.666116 138.48706055 67.84643555 C138.48706055 68.50643555 138.48706055 69.16643555 138.48706055 69.84643555 C139.80706055 69.84643555 141.12706055 69.84643555 142.48706055 69.84643555 C142.48706055 70.50643555 142.48706055 71.16643555 142.48706055 71.84643555 C143.91018555 72.06299805 143.91018555 72.06299805 145.36206055 72.28393555 C148.48706055 72.84643555 148.48706055 72.84643555 150.48706055 73.84643555 C150.48706055 74.50643555 150.48706055 75.16643555 150.48706055 75.84643555 C152.13706055 75.84643555 153.78706055 75.84643555 155.48706055 75.84643555 C155.48706055 76.50643555 155.48706055 77.16643555 155.48706055 77.84643555 C156.47706055 77.84643555 157.46706055 77.84643555 158.48706055 77.84643555 C158.48706055 78.50643555 158.48706055 79.16643555 158.48706055 79.84643555 C159.19217773 79.95858398 159.89729492 80.07073242 160.6237793 80.1862793 C163.76095566 80.90958463 166.38833961 82.04101246 169.29956055 83.40893555 C170.27538086 83.86397461 171.25120117 84.31901367 172.2565918 84.7878418 C173.36067383 85.3118457 173.36067383 85.3118457 174.48706055 85.84643555 C174.48706055 86.50643555 174.48706055 87.16643555 174.48706055 87.84643555 C175.16768555 87.78456055 175.84831055 87.72268555 176.54956055 87.65893555 C180.4064218 87.90511818 182.99785649 89.20445717 186.48706055 90.84643555 C186.48706055 91.50643555 186.48706055 92.16643555 186.48706055 92.84643555 C187.08518555 93.05268555 187.68331055 93.25893555 188.29956055 93.47143555 C191.50274774 95.4848675 192.21502806 97.28474459 193.48706055 100.84643555 C193.91207867 105.65824787 193.81826772 110.18721044 192.48706055 114.84643555 C191.82706055 114.84643555 191.16706055 114.84643555 190.48706055 114.84643555 C190.15706055 115.83643555 189.82706055 116.82643555 189.48706055 117.84643555 C187.37768555 119.41674805 187.37768555 119.41674805 184.73706055 120.97143555 C183.8759668 121.48963867 183.01487305 122.0078418 182.12768555 122.54174805 C179.5363547 123.82208015 177.33322006 124.42667821 174.48706055 124.84643555 C174.48706055 125.50643555 174.48706055 126.16643555 174.48706055 126.84643555 C173.53057617 127.24604492 172.5740918 127.6456543 171.58862305 128.05737305 C168.6297302 129.32461905 165.72185473 130.67400008 162.82299805 132.07299805 C161.60483398 132.66081055 161.60483398 132.66081055 160.36206055 133.26049805 C158.68599778 134.07234095 157.01153004 134.88748453 155.33862305 135.70581055 C154.5290918 136.09510742 153.71956055 136.4844043 152.88549805 136.88549805 C152.16023926 137.23821777 151.43498047 137.5909375 150.68774414 137.9543457 C148.30534374 138.92009798 146.01678981 139.41731974 143.48706055 139.84643555 C143.48706055 140.50643555 143.48706055 141.16643555 143.48706055 141.84643555 C142.24245272 142.52311553 140.99109158 143.18738274 139.73706055 143.84643555 C139.0409668 144.21768555 138.34487305 144.58893555 137.62768555 144.97143555 C135.48706055 145.84643555 135.48706055 145.84643555 131.48706055 145.84643555 C131.48706055 146.50643555 131.48706055 147.16643555 131.48706055 147.84643555 C130.77686768 148.18376709 130.0666748 148.52109863 129.33496094 148.86865234 C126.07172207 150.42074211 122.81063604 151.97730578 119.54956055 153.53393555 C117.87410156 154.32960937 117.87410156 154.32960937 116.16479492 155.14135742 C110.40960484 157.89237204 104.77025912 160.70610717 99.28955078 163.97460938 C97.48706055 164.84643555 97.48706055 164.84643555 94.48706055 164.84643555 C94.48706055 165.50643555 94.48706055 166.16643555 94.48706055 166.84643555 C92.82380517 167.55925928 91.16021369 168.27130972 89.49487305 168.97924805 C88.19135915 169.54224432 86.89392818 170.11962099 85.60424805 170.71362305 C82.23826027 172.24361749 80.26509985 172.84643555 76.48706055 172.84643555 C76.48706055 173.50643555 76.48706055 174.16643555 76.48706055 174.84643555 C70.48706055 177.84643555 64.48706055 180.84643555 58.48706055 183.84643555 C57.8115918 184.22541992 57.13612305 184.6044043 56.44018555 184.99487305 C54.48706055 185.84643555 54.48706055 185.84643555 50.48706055 185.84643555 C50.48706055 186.50643555 50.48706055 187.16643555 50.48706055 187.84643555 C49.80901367 188.14936523 49.1309668 188.45229492 48.43237305 188.7644043 C42.70188899 191.34391582 37.0590604 194.02899562 31.4831543 196.9284668 C29.48706055 197.84643555 29.48706055 197.84643555 27.48706055 197.84643555 C27.48706055 198.50643555 27.48706055 199.16643555 27.48706055 199.84643555 C25.86379184 200.51730674 24.23838477 201.18300584 22.61206055 201.84643555 C21.70713867 202.21768555 20.8022168 202.58893555 19.86987305 202.97143555 C17.48706055 203.84643555 17.48706055 203.84643555 15.48706055 203.84643555 C15.48706055 204.50643555 15.48706055 205.16643555 15.48706055 205.84643555 C13.92685188 206.4977848 12.36377476 207.14226519 10.79956055 207.78393555 C9.49438477 208.3234082 9.49438477 208.3234082 8.1628418 208.8737793 C5.60526789 209.80346675 3.16492825 210.3880618 0.48706055 210.84643555 C0.48706055 211.50643555 0.48706055 212.16643555 0.48706055 212.84643555 C-0.94722946 213.51998054 -2.38551002 214.18503255 -3.82543945 214.84643555 C-5.02620117 215.40331055 -5.02620117 215.40331055 -6.2512207 215.97143555 C-8.51293945 216.84643555 -8.51293945 216.84643555 -11.51293945 216.84643555 C-11.51293945 217.50643555 -11.51293945 218.16643555 -11.51293945 218.84643555 C-18.49923865 219.35248539 -22.71494061 218.87982605 -28.51293945 214.84643555 C-28.51293945 214.18643555 -28.51293945 213.52643555 -28.51293945 212.84643555 C-29.17293945 212.84643555 -29.83293945 212.84643555 -30.51293945 212.84643555 C-30.51293945 211.85643555 -30.51293945 210.86643555 -30.51293945 209.84643555 C-31.17293945 209.84643555 -31.83293945 209.84643555 -32.51293945 209.84643555 C-34.10669899 205.06515694 -34.01722159 200.01484874 -32.88793945 195.15893555 C-30.89150698 191.80129912 -28.72815071 190.09708342 -25.51293945 187.84643555 C-24.19293945 187.84643555 -22.87293945 187.84643555 -21.51293945 187.84643555 C-21.51293945 187.18643555 -21.51293945 186.52643555 -21.51293945 185.84643555 C-20.89547852 185.54350586 -20.27801758 185.24057617 -19.6418457 184.9284668 C-14.54790189 182.40863158 -9.54339814 179.79643708 -4.6184082 176.9597168 C-2.51293945 175.84643555 -2.51293945 175.84643555 -0.27075195 174.9753418 C3.56444032 173.40541182 7.1531253 171.43416059 10.79956055 169.47143555 C13.69088677 167.92112658 16.58549657 166.37750703 19.48706055 164.84643555 C20.21973145 164.4597168 20.95240234 164.07299805 21.70727539 163.67456055 C22.41190918 163.31104492 23.11654297 162.9475293 23.8425293 162.57299805 C24.4718335 162.24638184 25.1011377 161.91976562 25.74951172 161.58325195 C28.05541339 160.60542264 30.01894082 160.53792058 32.48706055 160.84643555 C32.48706055 160.18643555 32.48706055 159.52643555 32.48706055 158.84643555 C35.39306316 157.58978577 37.28310639 156.84643555 40.48706055 156.84643555 C40.48706055 156.18643555 40.48706055 155.52643555 40.48706055 154.84643555 C41.75397562 154.17235247 43.02576803 153.50743058 44.29956055 152.84643555 C45.00725586 152.47518555 45.71495117 152.10393555 46.4440918 151.72143555 C48.48706055 150.84643555 48.48706055 150.84643555 51.48706055 150.84643555 C51.48706055 150.18643555 51.48706055 149.52643555 51.48706055 148.84643555 C52.1625293 148.58088867 52.83799805 148.3153418 53.53393555 148.04174805 C54.87198242 147.51194336 54.87198242 147.51194336 56.23706055 146.97143555 C57.1187793 146.62338867 58.00049805 146.2753418 58.90893555 145.91674805 C61.44864465 144.90928112 61.44864465 144.90928112 63.62768555 143.71362305 C65.48706055 142.84643555 65.48706055 142.84643555 68.48706055 142.84643555 C68.48706055 142.18643555 68.48706055 141.52643555 68.48706055 140.84643555 C70.25461581 140.00617158 72.02623317 139.17444833 73.79956055 138.34643555 C74.78569336 137.88237305 75.77182617 137.41831055 76.7878418 136.94018555 C79.48706055 135.84643555 79.48706055 135.84643555 82.48706055 135.84643555 C82.48706055 135.18643555 82.48706055 134.52643555 82.48706055 133.84643555 C83.92135056 133.17289055 85.35963111 132.50783854 86.79956055 131.84643555 C87.60006836 131.47518555 88.40057617 131.10393555 89.2253418 130.72143555 C91.48706055 129.84643555 91.48706055 129.84643555 94.48706055 129.84643555 C94.48706055 129.18643555 94.48706055 128.52643555 94.48706055 127.84643555 C95.80706055 127.84643555 97.12706055 127.84643555 98.48706055 127.84643555 C98.48706055 127.18643555 98.48706055 126.52643555 98.48706055 125.84643555 C100.60988724 124.84183024 102.73539076 123.84287953 104.86206055 122.84643555 C106.04541992 122.28956055 107.2287793 121.73268555 108.44799805 121.15893555 C111.48706055 119.84643555 111.48706055 119.84643555 113.48706055 119.84643555 C113.48706055 119.18643555 113.48706055 118.52643555 113.48706055 117.84643555 C114.55956055 117.39268555 115.63206055 116.93893555 116.73706055 116.47143555 C118.78134491 115.60354017 120.7205579 114.71967984 122.67456055 113.65893555 C124.48706055 112.84643555 124.48706055 112.84643555 128.48706055 112.84643555 C128.48706055 112.18643555 128.48706055 111.52643555 128.48706055 110.84643555 C129.58018555 110.57831055 130.67331055 110.31018555 131.79956055 110.03393555 C135.70357329 109.08623945 135.70357329 109.08623945 138.48706055 105.84643555 C135.51706055 104.52643555 132.54706055 103.20643555 129.48706055 101.84643555 C129.48706055 101.18643555 129.48706055 100.52643555 129.48706055 99.84643555 C128.80643555 99.75233398 128.12581055 99.65823242 127.42456055 99.5612793 C123.82468471 98.68524568 120.74528264 97.11810974 117.48706055 95.40893555 C113.55006165 93.36893078 109.64254781 91.41261351 105.48706055 89.84643555 C105.48706055 89.18643555 105.48706055 88.52643555 105.48706055 87.84643555 C104.80643555 87.74331055 104.12581055 87.64018555 103.42456055 87.53393555 C99.85790066 86.69918536 96.82483861 85.35170801 93.48706055 83.84643555 C93.48706055 83.18643555 93.48706055 82.52643555 93.48706055 81.84643555 C92.28049805 81.75362305 92.28049805 81.75362305 91.04956055 81.65893555 C87.02326765 80.74065822 84.14416262 79.1201954 80.63549805 77.00268555 C78.56812302 75.8900619 76.77895771 75.30274086 74.48706055 74.84643555 C74.48706055 74.18643555 74.48706055 73.52643555 74.48706055 72.84643555 C73.72393555 72.70206055 72.96081055 72.55768555 72.17456055 72.40893555 C69.48706055 71.84643555 69.48706055 71.84643555 66.48706055 70.84643555 C66.48706055 70.18643555 66.48706055 69.52643555 66.48706055 68.84643555 C65.16706055 68.84643555 63.84706055 68.84643555 62.48706055 68.84643555 C62.48706055 68.18643555 62.48706055 67.52643555 62.48706055 66.84643555 C61.80643555 66.74331055 61.12581055 66.64018555 60.42456055 66.53393555 C56.85790066 65.69918536 53.82483861 64.35170801 50.48706055 62.84643555 C50.48706055 62.18643555 50.48706055 61.52643555 50.48706055 60.84643555 C49.79999023 60.64147461 49.11291992 60.43651367 48.4050293 60.2253418 C47.50397461 59.95592773 46.60291992 59.68651367 45.67456055 59.40893555 C44.78124023 59.14209961 43.88791992 58.87526367 42.9675293 58.6003418 C41.13233 58.04255681 39.30672329 57.45298979 37.48706055 56.84643555 C37.48706055 56.18643555 37.48706055 55.52643555 37.48706055 54.84643555 C36.84768555 54.76393555 36.20831055 54.68143555 35.54956055 54.59643555 C31.28164537 53.55123183 27.45598388 51.70551728 23.48706055 49.84643555 C23.48706055 49.18643555 23.48706055 48.52643555 23.48706055 47.84643555 C22.80643555 47.74331055 22.12581055 47.64018555 21.42456055 47.53393555 C17.85790066 46.69918536 14.82483861 45.35170801 11.48706055 43.84643555 C11.48706055 43.18643555 11.48706055 42.52643555 11.48706055 41.84643555 C9.83706055 41.84643555 8.18706055 41.84643555 6.48706055 41.84643555 C6.48706055 41.18643555 6.48706055 40.52643555 6.48706055 39.84643555 C5.70331055 39.70206055 4.91956055 39.55768555 4.11206055 39.40893555 C1.48706055 38.84643555 1.48706055 38.84643555 -0.51293945 37.84643555 C-0.51293945 37.18643555 -0.51293945 36.52643555 -0.51293945 35.84643555 C-2.16293945 35.84643555 -3.81293945 35.84643555 -5.51293945 35.84643555 C-5.51293945 35.18643555 -5.51293945 34.52643555 -5.51293945 33.84643555 C-8.15293945 33.18643555 -10.79293945 32.52643555 -13.51293945 31.84643555 C-13.51293945 31.18643555 -13.51293945 30.52643555 -13.51293945 29.84643555 C-14.50293945 29.59893555 -15.49293945 29.35143555 -16.51293945 29.09643555 C-23.09071159 27.18848136 -28.76299163 24.84635206 -32.51293945 18.84643555 C-34.45335868 14.15708908 -34.09944909 7.60596445 -32.51293945 2.84643555 C-31.85293945 2.84643555 -31.19293945 2.84643555 -30.51293945 2.84643555 C-30.30668945 2.08331055 -30.10043945 1.32018555 -29.88793945 0.53393555 C-23.88920133 -11.19087079 -8.60173742 -4.2670036 0 0 Z " fill="#002278" transform="translate(57.512939453125,68.153564453125)"/>
<path d="M0 0 C0.92941406 -0.00515625 1.85882813 -0.0103125 2.81640625 -0.015625 C5.4929462 0.25561899 7.14188282 0.88883405 9.4375 2.25 C9.4375 2.91 9.4375 3.57 9.4375 4.25 C10.365625 4.683125 10.365625 4.683125 11.3125 5.125 C13.63921294 6.3567892 15.09798487 7.36726067 16.0625 9.875 C16.9147766 15.27275179 17.18273447 20.41315831 14.4375 25.25 C11.12370448 29.20814465 8.43560891 30.971414 3.4375 32.25 C3.4375 32.91 3.4375 33.57 3.4375 34.25 C0.7975 34.58 -1.8425 34.91 -4.5625 35.25 C-4.5625 35.91 -4.5625 36.57 -4.5625 37.25 C-5.06700684 37.48187012 -5.57151367 37.71374023 -6.09130859 37.95263672 C-8.37550077 39.00554355 -10.65650694 40.06518168 -12.9375 41.125 C-13.7315625 41.48980469 -14.525625 41.85460937 -15.34375 42.23046875 C-16.10429687 42.58496094 -16.86484375 42.93945312 -17.6484375 43.3046875 C-18.3501709 43.62937012 -19.0519043 43.95405273 -19.77490234 44.28857422 C-21.73846008 45.23408273 -21.73846008 45.23408273 -23.5625 47.25 C-25.26416494 48.00265949 -26.96828366 48.75097941 -28.69140625 49.453125 C-30.41976693 50.1892118 -32.08973567 51.05853653 -33.75 51.9375 C-36.5625 53.25 -36.5625 53.25 -40.5625 53.25 C-40.5625 53.91 -40.5625 54.57 -40.5625 55.25 C-43.20988916 56.7106285 -44.45698334 57.25 -47.5625 57.25 C-47.5625 57.91 -47.5625 58.57 -47.5625 59.25 C-51.0275 59.745 -51.0275 59.745 -54.5625 60.25 C-54.5625 60.91 -54.5625 61.57 -54.5625 62.25 C-56.2125 62.25 -57.8625 62.25 -59.5625 62.25 C-59.5625 62.91 -59.5625 63.57 -59.5625 64.25 C-60.2225 64.25 -60.8825 64.25 -61.5625 64.25 C-61.5625 64.91 -61.5625 65.57 -61.5625 66.25 C-66.85080549 68.40294651 -72.11373997 70.52933894 -77.5625 72.25 C-77.5625 72.91 -77.5625 73.57 -77.5625 74.25 C-79.16399886 74.92305018 -80.76881029 75.58822227 -82.375 76.25 C-83.26832031 76.62125 -84.16164063 76.9925 -85.08203125 77.375 C-87.5625 78.25 -87.5625 78.25 -90.5625 78.25 C-90.5625 78.91 -90.5625 79.57 -90.5625 80.25 C-91.2738208 80.57274902 -91.9851416 80.89549805 -92.71801758 81.22802734 C-95.9382487 82.69097969 -99.15663808 84.15794044 -102.375 85.625 C-103.49455078 86.13289063 -104.61410156 86.64078125 -105.76757812 87.1640625 C-106.84072266 87.65390625 -107.91386719 88.14375 -109.01953125 88.6484375 C-110.00928955 89.09880371 -110.99904785 89.54916992 -112.01879883 90.01318359 C-114.7106927 91.2512805 -114.7106927 91.2512805 -117.5625 93.25 C-118.8825 93.25 -120.2025 93.25 -121.5625 93.25 C-121.5625 93.91 -121.5625 94.57 -121.5625 95.25 C-124.99546095 96.92613728 -128.43456883 98.58925697 -131.875 100.25 C-132.85146484 100.72695312 -133.82792969 101.20390625 -134.83398438 101.6953125 C-136.24067383 102.37207031 -136.24067383 102.37207031 -137.67578125 103.0625 C-138.97189331 103.69091797 -138.97189331 103.69091797 -140.29418945 104.33203125 C-142.5625 105.25 -142.5625 105.25 -145.5625 105.25 C-145.5625 105.91 -145.5625 106.57 -145.5625 107.25 C-148.5325 108.57 -151.5025 109.89 -154.5625 111.25 C-148.20880299 115.52652684 -141.68539036 118.46020127 -134.5625 121.25 C-134.5625 121.91 -134.5625 122.57 -134.5625 123.25 C-133.86125 123.353125 -133.16 123.45625 -132.4375 123.5625 C-129.12735389 124.35405668 -126.57152091 125.65698893 -123.5625 127.25 C-122.10575065 127.98232607 -120.6473749 128.71142465 -119.1875 129.4375 C-117.97916667 130.04166667 -116.77083333 130.64583333 -115.5625 131.25 C-115.5625 131.91 -115.5625 132.57 -115.5625 133.25 C-113.9125 133.25 -112.2625 133.25 -110.5625 133.25 C-110.5625 133.91 -110.5625 134.57 -110.5625 135.25 C-109.510625 135.4046875 -109.510625 135.4046875 -108.4375 135.5625 C-105.17112353 136.34359003 -102.5153148 137.67058743 -99.5625 139.25 C-99.5625 139.91 -99.5625 140.57 -99.5625 141.25 C-98.85609375 141.36214844 -98.1496875 141.47429687 -97.421875 141.58984375 C-94.28709708 142.31358346 -91.71790496 143.4313036 -88.8125 144.8125 C-87.10707031 145.61880859 -87.10707031 145.61880859 -85.3671875 146.44140625 C-84.75584961 146.73289551 -84.14451172 147.02438477 -83.51464844 147.32470703 C-81.45554385 148.30069582 -79.38893119 149.25919623 -77.3203125 150.21484375 C-70.00615628 153.60437063 -62.79418699 157.07112411 -55.76171875 161.0234375 C-53.7215701 162.16128239 -51.66011976 163.22279032 -49.5625 164.25 C-49.5625 164.91 -49.5625 165.57 -49.5625 166.25 C-47.9125 166.25 -46.2625 166.25 -44.5625 166.25 C-44.5625 166.91 -44.5625 167.57 -44.5625 168.25 C-43.97082031 168.44335938 -43.37914062 168.63671875 -42.76953125 168.8359375 C-38.6478355 170.19414719 -34.5674476 171.57050585 -30.5625 173.25 C-30.5625 173.91 -30.5625 174.57 -30.5625 175.25 C-29.86125 175.353125 -29.16 175.45625 -28.4375 175.5625 C-25.17112353 176.34359003 -22.5153148 177.67058743 -19.5625 179.25 C-19.5625 179.91 -19.5625 180.57 -19.5625 181.25 C-18.86898437 181.35570312 -18.17546875 181.46140625 -17.4609375 181.5703125 C-14.10361922 182.35760816 -11.29845811 183.63972071 -8.1875 185.125 C-3.67623559 187.25517707 0.83599596 189.32378901 5.4375 191.25 C5.4375 191.91 5.4375 192.57 5.4375 193.25 C6.7575 193.25 8.0775 193.25 9.4375 193.25 C9.4375 193.91 9.4375 194.57 9.4375 195.25 C10.4275 195.58 11.4175 195.91 12.4375 196.25 C12.4375 196.91 12.4375 197.57 12.4375 198.25 C13.0975 198.25 13.7575 198.25 14.4375 198.25 C16.22815315 204.7762648 17.18867627 210.23259561 14.375 216.6875 C14.065625 217.203125 13.75625 217.71875 13.4375 218.25 C12.7775 218.25 12.1175 218.25 11.4375 218.25 C11.1075 219.24 10.7775 220.23 10.4375 221.25 C8.7875 221.58 7.1375 221.91 5.4375 222.25 C5.4375 222.91 5.4375 223.57 5.4375 224.25 C-1.91424806 224.80253221 -7.074083 223.76064108 -13.5625 220.25 C-13.5625 219.59 -13.5625 218.93 -13.5625 218.25 C-14.8825 218.25 -16.2025 218.25 -17.5625 218.25 C-17.5625 217.59 -17.5625 216.93 -17.5625 216.25 C-18.573125 215.981875 -19.58375 215.71375 -20.625 215.4375 C-24.43577442 214.3564844 -27.95125208 212.87137662 -31.5625 211.25 C-31.5625 210.59 -31.5625 209.93 -31.5625 209.25 C-32.243125 209.146875 -32.92375 209.04375 -33.625 208.9375 C-37.19165989 208.10274981 -40.22472194 206.75527246 -43.5625 205.25 C-43.5625 204.59 -43.5625 203.93 -43.5625 203.25 C-44.29170654 203.12761963 -45.02091309 203.00523926 -45.7722168 202.87915039 C-48.50943634 202.26196474 -50.68727637 201.40061821 -53.20703125 200.18359375 C-54.04814453 199.78076172 -54.88925781 199.37792969 -55.75585938 198.96289062 C-56.62017578 198.54201172 -57.48449219 198.12113281 -58.375 197.6875 C-59.25865234 197.26275391 -60.14230469 196.83800781 -61.05273438 196.40039062 C-63.22514337 195.35528576 -65.39489957 194.30503238 -67.5625 193.25 C-67.5625 192.59 -67.5625 191.93 -67.5625 191.25 C-68.8825 191.25 -70.2025 191.25 -71.5625 191.25 C-71.5625 190.59 -71.5625 189.93 -71.5625 189.25 C-72.366875 189.064375 -72.366875 189.064375 -73.1875 188.875 C-76.0263286 188.12793984 -78.78473202 187.19696636 -81.5625 186.25 C-81.5625 185.59 -81.5625 184.93 -81.5625 184.25 C-82.5834375 184.0953125 -82.5834375 184.0953125 -83.625 183.9375 C-87.19165989 183.10274981 -90.22472194 181.75527246 -93.5625 180.25 C-93.5625 179.59 -93.5625 178.93 -93.5625 178.25 C-94.2225 178.1675 -94.8825 178.085 -95.5625 178 C-98.90448743 177.16450314 -101.57888312 175.81345305 -104.59765625 174.1875 C-106.57405698 173.24448574 -108.42632253 172.70673282 -110.5625 172.25 C-110.5625 171.59 -110.5625 170.93 -110.5625 170.25 C-111.46742188 169.97736328 -111.46742188 169.97736328 -112.390625 169.69921875 C-113.58945312 169.32216797 -113.58945312 169.32216797 -114.8125 168.9375 C-115.60140625 168.69386719 -116.3903125 168.45023438 -117.203125 168.19921875 C-119.70884778 167.19112167 -121.41193393 165.86702869 -123.5625 164.25 C-125.37386978 163.42888207 -127.21034129 162.66193305 -129.0625 161.9375 C-135.40880855 159.3739665 -141.48272966 156.38690278 -147.5625 153.25 C-147.5625 152.59 -147.5625 151.93 -147.5625 151.25 C-148.5834375 151.0953125 -148.5834375 151.0953125 -149.625 150.9375 C-153.19165989 150.10274981 -156.22472194 148.75527246 -159.5625 147.25 C-159.5625 146.59 -159.5625 145.93 -159.5625 145.25 C-160.8825 145.25 -162.2025 145.25 -163.5625 145.25 C-163.5625 144.59 -163.5625 143.93 -163.5625 143.25 C-164.985625 143.0334375 -164.985625 143.0334375 -166.4375 142.8125 C-169.5625 142.25 -169.5625 142.25 -171.5625 141.25 C-171.5625 140.59 -171.5625 139.93 -171.5625 139.25 C-172.09617187 139.07984375 -172.62984375 138.9096875 -173.1796875 138.734375 C-179.0796171 136.81536676 -184.82554469 134.60945761 -190.5625 132.25 C-190.5625 131.59 -190.5625 130.93 -190.5625 130.25 C-191.48482422 129.95996094 -191.48482422 129.95996094 -192.42578125 129.6640625 C-193.23402344 129.40367187 -194.04226563 129.14328125 -194.875 128.875 C-195.67550781 128.61976563 -196.47601563 128.36453125 -197.30078125 128.1015625 C-199.5625 127.25 -199.5625 127.25 -202.5625 125.25 C-202.5625 124.59 -202.5625 123.93 -202.5625 123.25 C-203.5525 122.92 -204.5425 122.59 -205.5625 122.25 C-205.5625 121.59 -205.5625 120.93 -205.5625 120.25 C-206.5525 119.92 -207.5425 119.59 -208.5625 119.25 C-209.58987401 112.40496595 -210.28714652 107.28649608 -206.5625 101.25 C-204.375 99.8125 -204.375 99.8125 -202.5625 99.25 C-202.5625 98.26 -202.5625 97.27 -202.5625 96.25 C-201.31586669 95.74166409 -200.06500613 95.24368855 -198.8125 94.75 C-198.11640625 94.4715625 -197.4203125 94.193125 -196.703125 93.90625 C-194.5625 93.25 -194.5625 93.25 -190.5625 93.25 C-190.5625 92.59 -190.5625 91.93 -190.5625 91.25 C-187.0975 90.26 -187.0975 90.26 -183.5625 89.25 C-183.5625 88.59 -183.5625 87.93 -183.5625 87.25 C-181.9392313 86.5791288 -180.31382422 85.91342971 -178.6875 85.25 C-177.78257812 84.87875 -176.87765625 84.5075 -175.9453125 84.125 C-173.5625 83.25 -173.5625 83.25 -171.5625 83.25 C-171.5625 82.59 -171.5625 81.93 -171.5625 81.25 C-170.44875 80.858125 -169.335 80.46625 -168.1875 80.0625 C-164.82723575 78.81355223 -161.68292368 77.33501639 -158.5 75.6875 C-154.55595646 73.66366313 -150.86764533 72.27949127 -146.5625 71.25 C-146.5625 70.59 -146.5625 69.93 -146.5625 69.25 C-143.0975 68.755 -143.0975 68.755 -139.5625 68.25 C-139.5625 67.59 -139.5625 66.93 -139.5625 66.25 C-137.02567484 64.927356 -134.48372349 63.61682639 -131.9375 62.3125 C-131.22464844 61.93931641 -130.51179688 61.56613281 -129.77734375 61.18164062 C-125.69331898 59.10216012 -122.1922779 57.71005679 -117.5625 57.25 C-117.5625 56.59 -117.5625 55.93 -117.5625 55.25 C-105.84375 49.390625 -105.84375 49.390625 -103.70703125 48.33007812 C-102.25847778 47.60052433 -100.81841032 46.85390917 -99.38671875 46.09179688 C-98.69191406 45.72634766 -97.99710937 45.36089844 -97.28125 44.984375 C-96.66185547 44.65147461 -96.04246094 44.31857422 -95.40429688 43.97558594 C-93.5625 43.25 -93.5625 43.25 -89.5625 43.25 C-89.5625 42.59 -89.5625 41.93 -89.5625 41.25 C-87.483688 40.24063464 -85.3992638 39.24282154 -83.3125 38.25 C-82.15234375 37.693125 -80.9921875 37.13625 -79.796875 36.5625 C-76.5625 35.25 -76.5625 35.25 -72.5625 35.25 C-72.5625 34.59 -72.5625 33.93 -72.5625 33.25 C-70.2525 32.59 -67.9425 31.93 -65.5625 31.25 C-65.5625 30.59 -65.5625 29.93 -65.5625 29.25 C-64.5725 28.8375 -63.5825 28.425 -62.5625 28 C-56.83421506 25.53844784 -51.35152191 22.71353599 -45.9375 19.625 C-42.53925403 17.71457211 -39.27316243 16.46164487 -35.5625 15.25 C-32.96199882 13.96610476 -30.39293133 12.63453032 -27.83203125 11.2734375 C-25.5625 10.25 -25.5625 10.25 -22.5625 10.25 C-22.5625 9.59 -22.5625 8.93 -22.5625 8.25 C-21.12820999 7.57645501 -19.68992943 6.91140299 -18.25 6.25 C-17.04923828 5.693125 -17.04923828 5.693125 -15.82421875 5.125 C-13.5625 4.25 -13.5625 4.25 -10.5625 4.25 C-10.5625 3.59 -10.5625 2.93 -10.5625 2.25 C-6.90115386 0.57548235 -4.0201529 -0.02236525 0 0 Z " fill="#FF5E00" transform="translate(471.5625,62.75)"/>
<path d="M0 0 C7.26 0 14.52 0 22 0 C22.33 39.6 22.66 79.2 23 120 C23.66 120 24.32 120 25 120 C26.25664978 122.90600261 27 124.79604584 27 128 C27.556875 128.268125 28.11375 128.53625 28.6875 128.8125 C31 130 31 130 33.21484375 131.5546875 C39.24817755 134.68559004 47.92629617 133.83682343 54.375 132 C55.24125 131.67 56.1075 131.34 57 131 C57 130.34 57 129.68 57 129 C57.66 129 58.32 129 59 129 C59.48212214 127.43840941 59.96055873 125.87568072 60.4375 124.3125 C60.70433594 123.44238281 60.97117187 122.57226562 61.24609375 121.67578125 C63.00362074 115.43792638 63.3043205 109.45862554 63.52734375 103.01171875 C63.58933205 101.27253426 63.58933205 101.27253426 63.65257263 99.49821472 C64.24461945 81.27763763 64.35131975 63.04439266 64.53222656 44.81616211 C64.58332234 39.74655404 64.63853873 34.67699079 64.69335938 29.60742188 C64.79949784 19.73831885 64.90085235 9.86917573 65 0 C72.26 0 79.52 0 87 0 C87.06798388 14.73506945 87.12313604 29.47004002 87.15543652 44.20523167 C87.17083951 51.04858111 87.19180163 57.89182547 87.22631836 64.73510742 C87.2596604 71.34870588 87.27689208 77.9622245 87.28463173 84.57591057 C87.290142 87.08946378 87.30090151 89.60301155 87.31719017 92.11651802 C87.48769593 119.53691222 87.48769593 119.53691222 83 133 C82.34 133 81.68 133 81 133 C80.896875 133.721875 80.79375 134.44375 80.6875 135.1875 C79.49064363 140.08373061 77.31507849 143.35527448 73 146 C72.34 146 71.68 146 71 146 C70.67 146.99 70.34 147.98 70 149 C65.73549365 151.6344781 61.0762444 153.65499928 56 153 C56 153.66 56 154.32 56 155 C48.08 155 40.16 155 32 155 C32 154.34 32 153.68 32 153 C31.030625 153.103125 30.06125 153.20625 29.0625 153.3125 C21.9039887 153.29803836 15.5185048 148.14250427 10.375 143.55859375 C8.3660939 141.28145303 7.62836 138.93234665 7 136 C6.34 136 5.68 136 5 136 C4.33838853 134.38135984 3.696722 132.75456686 3.0625 131.125 C2.70285156 130.22007812 2.34320313 129.31515625 1.97265625 128.3828125 C-0.36351301 120.25782221 -0.14255169 111.69951107 -0.11352539 103.30810547 C-0.11367142 102.18498459 -0.11381744 101.06186371 -0.1139679 99.90470886 C-0.11327621 96.22551481 -0.10551892 92.54637261 -0.09765625 88.8671875 C-0.09578942 86.30315173 -0.09436677 83.7391156 -0.09336853 81.17507935 C-0.08995217 75.13697971 -0.08208622 69.09890203 -0.07201904 63.06081116 C-0.0607992 56.18042253 -0.05533273 49.30003296 -0.05032361 42.41963744 C-0.03990182 28.27974631 -0.02158 14.13987828 0 0 Z " fill="#002278" transform="translate(283,382)"/>
<path d="M0 0 C8.91 0 17.82 0 27 0 C29.86818579 6.69243352 30.3466601 8.41345819 30 15 C30.66 15 31.32 15 32 15 C32.84329993 18.8728998 33.67285999 22.74861953 34.5 26.625 C34.85771484 28.26662109 34.85771484 28.26662109 35.22265625 29.94140625 C35.44824219 31.00488281 35.67382812 32.06835938 35.90625 33.1640625 C36.11572266 34.13811035 36.32519531 35.1121582 36.54101562 36.11572266 C37.01976189 39.12418453 37.07888771 41.95887878 37 45 C37.66 45 38.32 45 39 45 C39.677219 47.51840815 40.34191174 50.03908724 41 52.5625 C41.19078125 53.26697266 41.3815625 53.97144531 41.578125 54.69726562 C42.75834086 59.27060209 43.19856973 63.27776365 43 68 C43.66 68 44.32 68 45 68 C45.24234375 69.20914063 45.4846875 70.41828125 45.734375 71.6640625 C47.75658545 81.59692399 50.0957015 91.28473598 53 101 C54.49177439 106.12902206 55.2221394 110.66865435 55 116 C55.66 116 56.32 116 57 116 C57.18175781 116.92039062 57.36351562 117.84078125 57.55078125 118.7890625 C58.88142202 125.49003296 60.22832162 132.18745625 61.625 138.875 C61.86476563 140.02742187 62.10453125 141.17984375 62.3515625 142.3671875 C62.73681483 144.90931108 62.73681483 144.90931108 64 146 C64 148.31 64 150.62 64 153 C56.41 153 48.82 153 41 153 C38.25310596 145.42236126 36.28545102 138.09355496 34.9519043 130.16992188 C34.62508065 126.79646537 34.62508065 126.79646537 33 124 C32.67902249 121.68182911 32.48779044 119.36220643 32.28125 117.03125 C32.20934163 115.00819407 32.20934163 115.00819407 31 114 C31 112.35 31 110.7 31 109 C19.45 109 7.9 109 -4 109 C-4.33 112.3 -4.66 115.6 -5 119 C-5.28151884 120.94224346 -5.58719454 122.88147732 -5.9375 124.8125 C-6.09089844 125.68519531 -6.24429688 126.55789063 -6.40234375 127.45703125 C-7 130 -7 130 -7.93359375 132.2421875 C-9.4521943 136.16941091 -10.24869807 140.20173282 -11.125 144.3125 C-11.74375 147.179375 -12.3625 150.04625 -13 153 C-20.92 153 -28.84 153 -37 153 C-36.31662075 146.16620753 -35.57402791 140.50598201 -34 134 C-33.34 134 -32.68 134 -32 134 C-31.97421875 133.2471875 -31.9484375 132.494375 -31.921875 131.71875 C-31.42560494 122.42496529 -29.46321854 113.92487091 -27 105 C-26.34 105 -25.68 105 -25 105 C-24.96261719 104.45214844 -24.92523438 103.90429688 -24.88671875 103.33984375 C-24.23011252 95.42194508 -22.64485951 87.75877127 -21 80 C-20.34 80 -19.68 80 -19 80 C-18.91363281 79.05382812 -18.82726562 78.10765625 -18.73828125 77.1328125 C-17.87547309 68.70018558 -16.29341999 60.81422172 -13.89892578 52.68457031 C-11.80430224 45.53014611 -10.33039666 38.33340598 -9 31 C-8.34 31 -7.68 31 -7 31 C-7.020625 29.783125 -7.04125 28.56625 -7.0625 27.3125 C-7.06824116 24.08022678 -6.78766315 21.15065259 -6 18 C-5.34 18 -4.68 18 -4 18 C-3.96261719 17.28714844 -3.92523438 16.57429688 -3.88671875 15.83984375 C-3.82097656 14.88207031 -3.75523437 13.92429687 -3.6875 12.9375 C-3.60048828 11.52791016 -3.60048828 11.52791016 -3.51171875 10.08984375 C-3 7 -3 7 0 0 Z M13 23 C10.97150774 32.86584873 9.11174222 42.75387314 7.35839844 52.67236328 C7.19629883 53.57970215 7.03419922 54.48704102 6.8671875 55.421875 C6.72394043 56.23237305 6.58069336 57.04287109 6.43310547 57.87792969 C6 60 6 60 5 63 C4.93259135 64.56118428 4.91485544 66.1250252 4.9375 67.6875 C4.94652344 68.49574219 4.95554688 69.30398438 4.96484375 70.13671875 C4.97644531 70.75160156 4.98804688 71.36648438 5 72 C4.34 72 3.68 72 3 72 C2.34 77.28 1.68 82.56 1 88 C9.25 88 17.5 88 26 88 C25.23299167 80.84830481 25.23299167 80.84830481 24.09765625 73.80859375 C23.92943359 72.92623047 23.76121094 72.04386719 23.58789062 71.13476562 C23.41451172 70.24466797 23.24113281 69.35457031 23.0625 68.4375 C22.89298828 67.54353516 22.72347656 66.64957031 22.54882812 65.72851562 C21.76722497 61.66596234 20.93715722 57.63701094 19.91015625 53.62890625 C18.92887769 49.7164265 18.42866407 46.00086469 18 42 C17.34 42 16.68 42 16 42 C16.04125 40.906875 16.0825 39.81375 16.125 38.6875 C16.14420838 33.33796618 15.07503069 28.22157765 14 23 C13.67 23 13.34 23 13 23 Z " fill="#002278" transform="translate(138,382)"/>
<path d="M0 0 C47.5 0 47.5 0 60 5 C60 5.66 60 6.32 60 7 C60.7425 7.2475 61.485 7.495 62.25 7.75 C65.24612487 9.11187494 66.80168875 10.58185762 69 13 C69.51949219 13.44085938 70.03898437 13.88171875 70.57421875 14.3359375 C72.40606274 16.47392528 72.4860444 17.90741271 72.6875 20.6875 C72.75324219 21.49574219 72.81898437 22.30398438 72.88671875 23.13671875 C72.94279297 24.05904297 72.94279297 24.05904297 73 25 C73.66 25 74.32 25 75 25 C76.68392974 32.07327206 77.31101346 38.7393987 77.25 46 C77.26160156 47.38058594 77.26160156 47.38058594 77.2734375 48.7890625 C77.25573765 55.07251006 76.45447867 60.89052697 75 67 C74.34 67 73.68 67 73 67 C72.67 69.97 72.34 72.94 72 76 C71.34 76 70.68 76 70 76 C69.79375 76.680625 69.5875 77.36125 69.375 78.0625 C67.58687276 81.88259002 65.26659159 85.28826009 62 88 C60.68 88 59.36 88 58 88 C58 88.66 58 89.32 58 90 C54.91190305 91.76462683 53.76687864 92 50 92 C50 92.66 50 93.32 50 94 C41.16872303 95.76625539 32.00617072 95 23 95 C23 114.14 23 133.28 23 153 C15.41 153 7.82 153 0 153 C0 102.51 0 52.02 0 0 Z M23 19 C23 37.81 23 56.62 23 76 C37.13660637 76.66795808 37.13660637 76.66795808 47.703125 70.52734375 C55.02770445 63.00720514 55.27898121 53.90502664 55.24169922 43.97705078 C55.17320154 40.20967862 54.89258806 36.66393003 54 33 C53.34 33 52.68 33 52 33 C52 31.35 52 29.7 52 28 C51.34 28 50.68 28 50 28 C50 27.34 50 26.68 50 26 C49.34 26 48.68 26 48 26 C48 25.34 48 24.68 48 24 C47.34 24 46.68 24 46 24 C46 23.34 46 22.68 46 22 C43.05290491 20.34099453 40.67435202 19.66733496 37.3125 19.375 C36.52488281 19.30023438 35.73726562 19.22546875 34.92578125 19.1484375 C30.95531956 18.94699886 26.97556833 19 23 19 Z " fill="#002278" transform="translate(25,382)"/>
<path d="M0 0 C7.59 0 15.18 0 23 0 C23 43.89 23 87.78 23 133 C36.53 133 50.06 133 64 133 C65.5220959 134.5220959 65.12959521 135.88210082 65.1328125 138 C65.13410156 138.804375 65.13539063 139.60875 65.13671875 140.4375 C65.13285156 141.283125 65.12898438 142.12875 65.125 143 C65.12886719 143.845625 65.13273437 144.69125 65.13671875 145.5625 C65.13542969 146.366875 65.13414062 147.17125 65.1328125 148 C65.13168457 148.7425 65.13055664 149.485 65.12939453 150.25 C65 152 65 152 64 153 C42.88 153 21.76 153 0 153 C0 102.51 0 52.02 0 0 Z " fill="#002378" transform="translate(209,382)"/>
<path d="M0 0 C0 0.66 0 1.32 0 2 C0.99 2.33 1.98 2.66 3 3 C6.16867914 6.98638027 6.43598369 10.62801132 6.40405273 15.54077148 C6.41091599 16.28288879 6.41777924 17.0250061 6.42485046 17.78961182 C6.44309569 20.23363583 6.43928434 22.67701649 6.43359375 25.12109375 C6.43815674 26.82593494 6.44346267 28.53077428 6.44947815 30.23561096 C6.45840482 33.80566895 6.45599134 37.37550319 6.44604492 40.94555664 C6.43455719 45.51320025 6.45476557 50.08007054 6.48396206 54.64761257 C6.5023374 58.16759623 6.50202895 61.68739503 6.49632454 65.20741463 C6.49617148 66.89107409 6.50220318 68.5747462 6.51461601 70.25835991 C6.52954959 72.61600663 6.51883308 74.97223077 6.50170898 77.32983398 C6.51137695 78.02041397 6.52104492 78.71099396 6.53100586 79.42250061 C6.45636304 84.3478566 5.13041663 87.23117541 2 91 C1.34 91 0.68 91 0 91 C0 91.66 0 92.32 0 93 C-4.80655324 95.56349506 -9.69515161 95.65481722 -15 95 C-19.26118838 93.65223777 -22.07857458 91.3137065 -24.375 87.5 C-26.74342315 82.39878091 -27.13558184 78.5992058 -27.19287109 72.95581055 C-27.20104858 72.25445984 -27.20922607 71.55310913 -27.21765137 70.83050537 C-27.24240699 68.51591833 -27.25899526 66.20139217 -27.2734375 63.88671875 C-27.27876118 63.09374704 -27.28408485 62.30077534 -27.28956985 61.48377419 C-27.31625766 57.28712558 -27.33564716 53.09050629 -27.35009766 48.89379883 C-27.36343815 45.42803564 -27.39129821 41.96286105 -27.43212891 38.49731445 C-27.48152557 34.30401557 -27.50622669 30.1112505 -27.51332474 25.91767311 C-27.52002285 24.32410664 -27.53520749 22.73055141 -27.55921555 21.13715172 C-27.75833132 7.12355729 -27.75833132 7.12355729 -24.61694336 2.55395508 C-18.12641001 -3.78035496 -7.81300102 -4.88312564 0 0 Z " fill="#002278" transform="translate(52,129)"/>
<path d="M0 0 C0 0.66 0 1.32 0 2 C0.66 2 1.32 2 2 2 C5.23688257 8.15239164 5.46939081 13.47582724 5.51171875 20.35546875 C5.52966995 21.45232498 5.54762115 22.54918121 5.56611633 23.67927551 C5.62004798 27.18197708 5.65393158 30.68455037 5.6875 34.1875 C5.72071832 36.49155537 5.75521206 38.79559273 5.79101562 41.09960938 C5.87397203 46.68708441 5.92526981 52.27432953 5.96722412 57.86224365 C5.99854068 60.86029378 6.05709 63.85655359 6.12353516 66.85400391 C6.15165467 68.62792515 6.179504 70.40185071 6.20703125 72.17578125 C6.23101486 72.95938522 6.25499847 73.7429892 6.27970886 74.55033875 C6.35253908 81.26689782 4.95059887 86.64927829 0.5625 91.9375 C-3.04449127 94.84068809 -5.95362029 95.14056979 -10.5 95.125 C-11.2528125 95.12757813 -12.005625 95.13015625 -12.78125 95.1328125 C-14.973535 95.00158417 -16.89319137 94.60331338 -19 94 C-19 93.34 -19 92.68 -19 92 C-20.32 91.34 -21.64 90.68 -23 90 C-23 89.34 -23 88.68 -23 88 C-23.99 87.67 -24.98 87.34 -26 87 C-27.50215513 83.44535743 -27.15496071 79.44969522 -27.16113281 75.64868164 C-27.16609772 74.91485764 -27.17106262 74.18103363 -27.17617798 73.42497253 C-27.19075402 71.00335749 -27.19759308 68.58180791 -27.203125 66.16015625 C-27.2088791 64.47391254 -27.2146368 62.78766885 -27.22039795 61.10142517 C-27.23089419 57.56834611 -27.23674623 54.03528972 -27.24023438 50.50219727 C-27.24572392 45.97830561 -27.26976744 41.4547142 -27.29820633 36.93091679 C-27.31683981 33.44875718 -27.32203863 29.9666699 -27.32357025 26.48446465 C-27.32659443 24.81671948 -27.33461507 23.14897551 -27.34775543 21.48127937 C-27.36483521 19.14752498 -27.36293157 16.81450465 -27.35644531 14.48071289 C-27.3656601 13.79431732 -27.37487488 13.10792175 -27.3843689 12.40072632 C-27.34723631 8.12970621 -26.6619744 5.37572192 -24 2 C-23.34 2 -22.68 2 -22 2 C-22 1.34 -22 0.68 -22 0 C-13.98566352 -3.28365175 -8.09117447 -3.79273803 0 0 Z " fill="#002278" transform="translate(600,129)"/>
<path d="M0 0 C1.87075195 -0.01836914 1.87075195 -0.01836914 3.77929688 -0.03710938 C12.07757963 -0.05019127 19.66953789 0.55651263 27.5625 3.1875 C27.5625 3.8475 27.5625 4.5075 27.5625 5.1875 C28.614375 5.2803125 28.614375 5.2803125 29.6875 5.375 C36.74912578 7.37067685 39.83887883 12.78164661 43.36328125 18.78515625 C45.40227326 22.86978194 45.69019019 26.36056923 45.6953125 30.90625 C45.69724609 32.55173828 45.69724609 32.55173828 45.69921875 34.23046875 C45.69535156 35.37128906 45.69148438 36.51210938 45.6875 37.6875 C45.69330078 39.39873047 45.69330078 39.39873047 45.69921875 41.14453125 C45.69792969 42.24152344 45.69664062 43.33851563 45.6953125 44.46875 C45.69418457 45.46970703 45.69305664 46.47066406 45.69189453 47.50195312 C45.57669427 49.89290194 45.24625146 51.90334914 44.5625 54.1875 C43.9025 54.1875 43.2425 54.1875 42.5625 54.1875 C42.48 54.88875 42.3975 55.59 42.3125 56.3125 C40.95502994 61.51613523 37.65612336 65.75413848 33.5625 69.1875 C32.5725 69.1875 31.5825 69.1875 30.5625 69.1875 C30.5625 69.8475 30.5625 70.5075 30.5625 71.1875 C21.88853627 75.3413779 14.08955179 75.72878713 4.68847656 75.54418945 C2.40667862 75.49939494 0.125937 75.48263008 -2.15625 75.47070312 C-13.2568294 75.3681706 -13.2568294 75.3681706 -14.4375 74.1875 C-14.53717586 71.92300621 -14.56549831 69.65535789 -14.56689453 67.38867188 C-14.56864685 66.67812149 -14.57039917 65.96757111 -14.57220459 65.23548889 C-14.57662277 62.87571809 -14.57368525 60.51602163 -14.5703125 58.15625 C-14.57098555 56.52339666 -14.57195558 54.89054342 -14.57321167 53.25769043 C-14.5746886 49.83112639 -14.57253426 46.40458837 -14.56787109 42.97802734 C-14.5621738 38.57595499 -14.56545284 34.17394359 -14.57144356 29.77187347 C-14.57504931 26.39881935 -14.57391052 23.02577978 -14.57131577 19.65272522 C-14.57064654 18.02913913 -14.57147478 16.40555173 -14.57379532 14.78196716 C-14.57632209 12.5167183 -14.57248094 10.2515695 -14.56689453 7.98632812 C-14.56609894 6.69472778 -14.56530334 5.40312744 -14.56448364 4.0723877 C-14.26991432 -2.61980824 -5.19064619 0.00260968 0 0 Z M-3.4375 9.1875 C-3.4375 27.9975 -3.4375 46.8075 -3.4375 66.1875 C2.8325 66.1875 9.1025 66.1875 15.5625 66.1875 C15.5625 65.5275 15.5625 64.8675 15.5625 64.1875 C16.7175 64.166875 17.8725 64.14625 19.0625 64.125 C23.86886108 63.54137044 26.55124134 61.21478893 30.09375 58.07421875 C31.97201991 56.05994303 31.97201991 56.05994303 31.5625 52.1875 C32.2225 52.1875 32.8825 52.1875 33.5625 52.1875 C36.9251247 41.81716544 37.15616584 30.77412789 32.4375 20.8125 C32.14875 20.27625 31.86 19.74 31.5625 19.1875 C30.9025 19.1875 30.2425 19.1875 29.5625 19.1875 C29.47613281 18.57390625 29.38976562 17.9603125 29.30078125 17.328125 C28.75018341 15.0774496 28.75018341 15.0774496 26.85546875 13.921875 C26.16066406 13.59703125 25.46585937 13.2721875 24.75 12.9375 C24.06292969 12.60234375 23.37585938 12.2671875 22.66796875 11.921875 C20.30466921 10.96794278 20.30466921 10.96794278 16.5625 11.1875 C16.5625 10.5275 16.5625 9.8675 16.5625 9.1875 C9.9625 9.1875 3.3625 9.1875 -3.4375 9.1875 Z " fill="#FF5E00" transform="translate(406.4375,375.8125)"/>
<path d="M0 0 C32 0 32 0 45 4 C45 4.66 45 5.32 45 6 C45.763125 6.28875 46.52625 6.5775 47.3125 6.875 C50 8 50 8 53 10 C54.1875 13.125 54.1875 13.125 55 16 C55.66 16 56.32 16 57 16 C57 17.98 57 19.96 57 22 C57.66 22 58.32 22 59 22 C59.92952959 25.15689293 60.12877214 27.99586367 60.1328125 31.28125 C60.13474609 32.79138672 60.13474609 32.79138672 60.13671875 34.33203125 C60.13285156 35.37746094 60.12898438 36.42289062 60.125 37.5 C60.13080078 39.06814453 60.13080078 39.06814453 60.13671875 40.66796875 C60.13542969 41.67472656 60.13414062 42.68148437 60.1328125 43.71875 C60.13168457 44.63591797 60.13055664 45.55308594 60.12939453 46.49804688 C60.00978544 48.81079015 59.65210743 50.78529551 59 53 C58.34 53 57.68 53 57 53 C56.814375 54.3921875 56.814375 54.3921875 56.625 55.8125 C56 59 56 59 54 62 C53.34 62 52.68 62 52 62 C51.773125 62.804375 51.54625 63.60875 51.3125 64.4375 C50.879375 65.283125 50.44625 66.12875 50 67 C47.375 67.8125 47.375 67.8125 45 68 C45 68.66 45 69.32 45 70 C35 74 35 74 0 74 C0 49.58 0 25.16 0 0 Z M10 9 C10 27.81 10 46.62 10 66 C27.04992878 67.00138793 27.04992878 67.00138793 35 64 C35 63.34 35 62.68 35 62 C36.32 62 37.64 62 39 62 C39 61.34 39 60.68 39 60 C39.59425781 59.94328125 40.18851562 59.8865625 40.80078125 59.828125 C44.00152348 58.62287215 44.63339629 56.73835367 46.1875 53.75 C46.69667969 52.79609375 47.20585937 51.8421875 47.73046875 50.859375 C51.0581767 43.36435278 51.53619662 33.28828454 48.6875 25.5625 C48.130625 24.386875 47.57375 23.21125 47 22 C46.566875 20.9275 46.13375 19.855 45.6875 18.75 C43.09360861 14.52291774 39.89391059 12.49406363 35.125 11.25 C34.42375 11.1675 33.7225 11.085 33 11 C33 10.34 33 9.68 33 9 C25.41 9 17.82 9 10 9 Z " fill="#FF5E00" transform="translate(392,461)"/>
<path d="M0 0 C2.45703125 0.02734375 2.45703125 0.02734375 4.625 0.375 C7.11825015 3.01935622 7.57263101 4.58946509 7.8125 8.1875 C7.7196875 9.2703125 7.7196875 9.2703125 7.625 10.375 C8.285 10.375 8.945 10.375 9.625 10.375 C10.285 13.675 10.945 16.975 11.625 20.375 C12.285 20.375 12.945 20.375 13.625 20.375 C14.30256882 21.93280332 14.96659457 23.49650096 15.625 25.0625 C15.99625 25.93261719 16.3675 26.80273438 16.75 27.69921875 C17.64370488 30.4322002 17.78949676 32.52200934 17.625 35.375 C18.285 35.375 18.945 35.375 19.625 35.375 C20.61552547 37.87100303 21.59244057 40.37104797 22.5625 42.875 C22.84029297 43.57109375 23.11808594 44.2671875 23.40429688 44.984375 C25.26124614 49.81691767 26.16600634 54.21567888 26.625 59.375 C27.285 59.375 27.945 59.375 28.625 59.375 C29.29720351 61.31058599 29.96258077 63.24854372 30.625 65.1875 C30.99625 66.26644531 31.3675 67.34539062 31.75 68.45703125 C32.625 71.375 32.625 71.375 32.625 74.375 C29.325 74.375 26.025 74.375 22.625 74.375 C22.625 73.715 22.625 73.055 22.625 72.375 C21.965 72.375 21.305 72.375 20.625 72.375 C20.28726563 71.33859375 19.94953125 70.3021875 19.6015625 69.234375 C19.15120263 67.8645304 18.70067286 66.49474166 18.25 65.125 C18.02828125 64.44308594 17.8065625 63.76117187 17.578125 63.05859375 C16.45581961 59.6586686 15.2322043 56.58940861 13.625 53.375 C4.385 53.375 -4.855 53.375 -14.375 53.375 C-15.695 57.335 -17.015 61.295 -18.375 65.375 C-19.66821839 68.39250957 -20.98668706 71.4000437 -22.375 74.375 C-26.005 74.375 -29.635 74.375 -33.375 74.375 C-32.715 71.735 -32.055 69.095 -31.375 66.375 C-30.715 66.375 -30.055 66.375 -29.375 66.375 C-29.19324219 65.56675781 -29.01148438 64.75851562 -28.82421875 63.92578125 C-28.57285156 62.85714844 -28.32148438 61.78851562 -28.0625 60.6875 C-27.81886719 59.63175781 -27.57523437 58.57601562 -27.32421875 57.48828125 C-26.37281333 54.36782809 -25.05439464 52.15114216 -23.375 49.375 C-22.58604661 47.12423999 -21.85797134 44.85135042 -21.1875 42.5625 C-20.67123047 40.82033203 -20.67123047 40.82033203 -20.14453125 39.04296875 C-19.89058594 38.16253906 -19.63664062 37.28210938 -19.375 36.375 C-18.715 36.375 -18.055 36.375 -17.375 36.375 C-17.2925 35.446875 -17.21 34.51875 -17.125 33.5625 C-16.39257075 28.24965502 -14.30813849 23.34721202 -12.375 18.375 C-11.715 18.375 -11.055 18.375 -10.375 18.375 C-10.2925 17.611875 -10.21 16.84875 -10.125 16.0625 C-6.91724066 0.2910166 -6.91724066 0.2910166 0 0 Z M-0.375 13.375 C-0.76171875 14.55835938 -1.1484375 15.74171875 -1.546875 16.9609375 C-6.59703245 32.31763814 -6.59703245 32.31763814 -9.7109375 39.72265625 C-10.4371505 41.23284645 -10.4371505 41.23284645 -10.375 42.375 C-3.445 42.375 3.485 42.375 10.625 42.375 C10.625 41.715 10.625 41.055 10.625 40.375 C9.965 40.375 9.305 40.375 8.625 40.375 C8.13 35.425 8.13 35.425 7.625 30.375 C6.965 30.375 6.305 30.375 5.625 30.375 C5.51542969 29.818125 5.40585937 29.26125 5.29296875 28.6875 C4.18224752 23.34158969 2.65274474 18.44436184 0.625 13.375 C0.295 13.375 -0.035 13.375 -0.375 13.375 Z " fill="#FF5E00" transform="translate(502.375,460.625)"/>
<path d="M0 0 C1.45792884 -0.05399736 2.91642712 -0.09279177 4.375 -0.125 C5.18710937 -0.14820313 5.99921875 -0.17140625 6.8359375 -0.1953125 C9 0 9 0 11 2 C12.66737686 5.54317583 13.52696608 9.15528309 14.43359375 12.953125 C15.30559206 16.10434648 16.6741479 19.01683278 18 22 C19.46437855 25.85362777 20.24282524 28.87197093 20 33 C20.66 33 21.32 33 22 33 C22 34.98 22 36.96 22 39 C22.66 39 23.32 39 24 39 C28.59225513 50.33712984 28.59225513 50.33712984 28 57 C29.485 57.495 29.485 57.495 31 58 C31.23074219 57.04480469 31.46148438 56.08960938 31.69921875 55.10546875 C33.51629362 47.82394043 35.55748139 41.10865928 38.94921875 34.3671875 C40.03911333 31.91188595 40.57179211 29.64453661 41 27 C41.66 27 42.32 27 43 27 C43.0825 26.113125 43.165 25.22625 43.25 24.3125 C44.07285859 18.36826778 46.16009656 12.69086414 48 7 C48.66 7 49.32 7 50 7 C49.95875 6.21625 49.9175 5.4325 49.875 4.625 C50 2 50 2 52 0 C54.3828125 -0.1953125 54.3828125 -0.1953125 57.125 -0.125 C58.03507813 -0.10695313 58.94515625 -0.08890625 59.8828125 -0.0703125 C60.58148437 -0.04710937 61.28015625 -0.02390625 62 0 C60.62982617 6.96505028 58.51097 13.36929999 56 20 C55.505 21.485 55.505 21.485 55 23 C54.34 23 53.68 23 53 23 C52.814375 24.60875 52.814375 24.60875 52.625 26.25 C52.08317901 29.50092593 51.45649158 31.17804756 50 34 C49.61709538 35.99110401 49.27395385 37.99100513 49 40 C48.34 40 47.68 40 47 40 C46.896875 40.763125 46.79375 41.52625 46.6875 42.3125 C45.28416347 49.83948684 43.24272395 56.85489868 39.984375 63.78515625 C38.36390732 67.43120853 37.20650923 71.19949591 36 75 C32.37 75 28.74 75 25 75 C25 74.01 25 73.02 25 72 C24.34 72 23.68 72 23 72 C18.59225513 58.3667426 18.59225513 58.3667426 18 52 C17.34 52 16.68 52 16 52 C15.17977388 49.64828157 14.3687346 47.2940149 13.5625 44.9375 C13.33240234 44.28072266 13.10230469 43.62394531 12.86523438 42.94726562 C11.39565872 38.62373145 10.51353789 34.53920274 10 30 C9.34 30 8.68 30 8 30 C7.82984375 29.32195312 7.6596875 28.64390625 7.484375 27.9453125 C6.22264325 23.09972566 4.85793742 18.47773065 2.875 13.875 C0.91370869 9.20383292 0.32540428 5.04376637 0 0 Z " fill="#FF5E00" transform="translate(540,376)"/>
<path d="M0 0 C13.86 0 27.72 0 42 0 C42 2.97 42 5.94 42 9 C25.665 9.495 25.665 9.495 9 10 C9 17.26 9 24.52 9 32 C19.23 32 29.46 32 40 32 C40 34.64 40 37.28 40 40 C29.77 40 19.54 40 9 40 C9.33 44.95 9.66 49.9 10 55 C10.03569348 58.67642825 10.06870545 62.32807539 10 66 C10.93384521 65.99476318 11.86769043 65.98952637 12.82983398 65.98413086 C16.28312796 65.9671238 19.73637767 65.95456698 23.18969727 65.94506836 C24.68644918 65.94002879 26.18319616 65.93319713 27.67993164 65.92456055 C29.82699807 65.91247841 31.97399962 65.90676809 34.12109375 65.90234375 C36.06133423 65.89448853 36.06133423 65.89448853 38.04077148 65.88647461 C41 66 41 66 42 67 C42 69.64 42 72.28 42 75 C28.14 75 14.28 75 0 75 C0 50.25 0 25.5 0 0 Z " fill="#FF5E00" transform="translate(480,376)"/>
<path d="M0 0 C3.63 0 7.26 0 11 0 C12.67422266 3.1003016 14.33957849 6.20481919 16 9.3125 C16.47695313 10.19357422 16.95390625 11.07464844 17.4453125 11.98242188 C17.89648438 12.82998047 18.34765625 13.67753906 18.8125 14.55078125 C19.44091797 15.72120972 19.44091797 15.72120972 20.08203125 16.9152832 C21 19 21 19 21 22 C21.66 22 22.32 22 23 22 C24.98 25.96 26.96 29.92 29 34 C31.475 29.545 31.475 29.545 34 25 C34.66 25 35.32 25 36 25 C36.0825 24.34 36.165 23.68 36.25 23 C37.24759791 19.00960837 39.07166683 15.61450357 41 12 C41.66 12 42.32 12 43 12 C42.9175 11.319375 42.835 10.63875 42.75 9.9375 C43.09946865 5.83124335 44.81849032 3.47678105 47 0 C50.63 0 54.26 0 58 0 C57.71252022 5.46211578 55.33016953 9.02255514 52.5 13.51953125 C50.64391507 16.58883836 49.30496984 19.66507708 48 23 C47.34 23 46.68 23 46 23 C45.855625 23.598125 45.71125 24.19625 45.5625 24.8125 C45.1127561 26.56150404 44.57107659 28.28677023 44 30 C43.34 30 42.68 30 42 30 C41.6596875 31.1446875 41.6596875 31.1446875 41.3125 32.3125 C40 36 40 36 38.80664062 38.26757812 C34.82163488 45.94089575 34.22901191 52.63143492 34.1875 61.1875 C34.16236328 62.42564453 34.13722656 63.66378906 34.11132812 64.93945312 C34.05301726 67.95995606 34.01632612 70.97902835 34 74 C30.7 74 27.4 74 24 74 C24 64.43 24 54.86 24 45 C23.34 45 22.68 45 22 45 C21.32591692 43.73308493 20.66099503 42.46129251 20 41.1875 C19.443125 40.12595703 19.443125 40.12595703 18.875 39.04296875 C18 37 18 37 18 34 C17.34 34 16.68 34 16 34 C15.35004703 32.58521865 14.70521278 31.16808513 14.0625 29.75 C13.70285156 28.96109375 13.34320312 28.1721875 12.97265625 27.359375 C12.09966721 25.24176302 11.48661492 23.23330638 11 21 C10.34 21 9.68 21 9 21 C9 19.35 9 17.7 9 16 C8.34 16 7.68 16 7 16 C6.32845067 14.71086513 5.66291141 13.41859796 5 12.125 C4.62875 11.40570313 4.2575 10.68640625 3.875 9.9453125 C3 8 3 8 3 6 C2.34 6 1.68 6 1 6 C0.67 4.02 0.34 2.04 0 0 Z " fill="#FF5E00" transform="translate(547,461)"/>
<path d="M0 0 C4 4.1025641 4 4.1025641 4 8 C4.66 8 5.32 8 6 8 C6.90364686 22.29770144 6.90364686 22.29770144 2.484375 28.44921875 C-0.33302115 31.3926563 -1.95099309 32.88999178 -6.12890625 33.328125 C-7.26199219 33.30234375 -8.39507812 33.2765625 -9.5625 33.25 C-10.69816406 33.23453125 -11.83382813 33.2190625 -13.00390625 33.203125 C-16 33 -16 33 -19 32 C-19 31.34 -19 30.68 -19 30 C-19.5775 29.95875 -20.155 29.9175 -20.75 29.875 C-24.24623732 28.51535215 -25.20201066 26.22232245 -27 23 C-28.19346839 15.95543659 -28.20292232 8.89276355 -24.375 2.6875 C-18.09794268 -5.11482359 -8.1887185 -4.56678532 0 0 Z " fill="#FF5E00" transform="translate(471,13)"/>
<path d="M0 0 C3.43721406 1.95449427 4.65651842 3.21019041 6.1875 6.8125 C6.1875 7.8025 6.1875 8.7925 6.1875 9.8125 C6.8475 9.8125 7.5075 9.8125 8.1875 9.8125 C8.1875 15.0925 8.1875 20.3725 8.1875 25.8125 C7.5275 25.8125 6.8675 25.8125 6.1875 25.8125 C6.043125 26.43125 5.89875 27.05 5.75 27.6875 C5.1875 29.8125 5.1875 29.8125 4.1875 31.8125 C3.1975 31.8125 2.2075 31.8125 1.1875 31.8125 C1.1875 32.4725 1.1875 33.1325 1.1875 33.8125 C-4.33997653 36.57623827 -9.5187197 36.4678658 -15.3125 34.8125 C-16.1375 34.4825 -16.9625 34.1525 -17.8125 33.8125 C-17.8125 33.1525 -17.8125 32.4925 -17.8125 31.8125 C-18.43125 31.565 -19.05 31.3175 -19.6875 31.0625 C-22.33797989 29.50339418 -22.75410426 28.69394742 -23.8125 25.8125 C-24.03093936 23.14016392 -24.13724486 20.60687893 -24.125 17.9375 C-24.14111328 17.24269531 -24.15722656 16.54789062 -24.17382812 15.83203125 C-24.17831184 11.0703252 -23.41434932 7.80278012 -20.8125 3.8125 C-14.31728273 -1.69626416 -8.00036153 -2.49191589 0 0 Z " fill="#002278" transform="translate(51.8125,307.1875)"/>
<path d="M0 0 C0 0.66 0 1.32 0 2 C0.66 2 1.32 2 2 2 C5.31218124 8.34834737 5.97050165 13.99525617 4.6015625 21.0546875 C3.43586758 24.58205005 1.66419828 26.58679853 -1.4375 28.4375 C-6.80763832 30.69236471 -12.3023778 31.16698286 -18 30 C-21.79325897 27.72876407 -25.00360947 24.99278106 -27 21 C-28.197431 7.81115286 -28.197431 7.81115286 -25.0625 2.8125 C-18.60879503 -4.368383 -8.01216923 -4.37518455 0 0 Z " fill="#002279" transform="translate(600,13)"/>
</svg>
