<svg width="231" height="231" viewBox="0 0 231 231" fill="none" xmlns="http://www.w3.org/2000/svg">
<path d="M223.86 22.579L225.211 22.772L226.561 23.1579L226.947 23.3509V23.7369L227.912 23.9299V24.3158H228.298V24.7018H228.684L229.263 25.6667V26.0527H229.649V27.7895H230.035V29.5263H229.649V31.0702H229.263V31.8421H228.877L228.684 32.6141H228.298V33.193H227.719V33.579L226.947 33.772V34.1579H226.368V34.5439H225.596V34.9299L224.246 35.5088H223.667V35.8948H222.895V36.2807L221.158 36.8597V37.2456H220.193V37.6316H219.421V38.0176L218.456 38.2106V38.5965H217.491V38.9825H216.719V39.3685L215.754 39.5614V39.9474H214.789V40.3334H214.018V40.7193L213.053 40.9123V41.2983H212.281V41.6842L210.93 42.2632H210.351V42.6492H209.579V43.0351H209V43.4211L207.649 44H207.07V44.386H206.298V44.772L204.947 45.3509H204.368V45.7369H203.596V46.1228L202.246 46.7018H201.667V47.0877H200.895V47.4737L199.93 47.8597L199.158 48.0527V48.4386H198.193V48.8246L197.228 49.4035H196.456V49.7895H195.491V50.1755L194.333 50.7544H193.754V51.1404H192.789V51.5263L191.632 52.1053H191.053V52.4913H190.088V52.8772L189.123 53.4562H188.351V53.8421H187.579V54.2281H187V54.6141L185.842 55.193H185.07V55.579H184.298V55.9649L183.14 56.5439H182.368V56.9299H181.596V57.3158L180.439 57.8948H179.86V58.2807H178.895V58.6667L177.93 58.8597V59.2456H177.158V59.6316H176.193V60.0176L175.228 60.5965H174.456V60.9825H173.684V61.3685L172.526 61.9474H171.754V62.3334H170.982V62.7193L169.825 63.2983H169.053V63.6842H168.281V64.0702L167.316 64.2632V64.6492H166.544V65.0351H165.579V65.4211L164.614 65.6141V66H164.228V66.386H164.614V66.772L165.579 66.9649L166.544 67.3509V67.7369H167.316V68.1228L168.281 68.3158L169.053 68.7018V69.0877H170.018V69.4737L170.789 69.6667L171.754 70.0527V70.4386H172.526V70.8246L173.491 71.0176L174.456 71.4035V71.7895H175.035V72.1755L176 72.3684L176.772 72.7544V73.1404H177.737V73.5263H178.509V73.9123L179.474 74.1053V74.4913H180.439V74.8772H181.211V75.2632L182.175 75.4562V75.8421H182.947V76.2281L183.912 76.4211L184.877 77L185.649 77.193V77.579L186.614 77.772L187.965 78.5439V78.9299H188.93V79.3158H189.702V79.7018L190.667 79.8948V80.2807L191.632 80.4737L192.403 80.6667V81.0527L193.368 81.2456V81.6316H194.14V82.0176L195.105 82.2106L195.877 82.5965V82.9825H196.842V83.3684L197.807 83.5614V83.9474H198.579V84.3334H199.544V84.7193L200.509 84.9123V85.2983H201.088V85.6842H201.86V86.0702L202.825 86.2632L203.789 86.8421L204.561 87.0351V87.4211L205.526 87.6141L206.491 88.193L207.263 88.386V88.772H208.035V89.1579L209 89.3509V89.7369H209.772V90.1228L210.737 90.3158L211.702 90.7018V91.0877H212.474V91.4737H213.439V91.8597L214.403 92.2456L214.982 92.4386V92.8246H215.754V93.2105L217.684 93.7895V94.1755H218.456V94.5614L219.421 94.7544L220.193 95.1404V95.5263H221.158V95.9123L221.93 96.1053V96.4912H222.895V96.8772H223.667V97.2632L224.632 97.4562V97.8421H225.596V98.2281H226.368V98.6141H226.947V99L227.719 99.193V99.579H228.298V100.158H228.684V100.93H229.263V101.702H229.649V103.246H230.035V104.789H229.649V106.719H229.263L228.877 107.684L228.684 108.07H228.298V108.649L227.333 109.035V109.421H226.368V109.807L223.86 110.193L221.93 109.807V109.421H220.965V109.035H220.193V108.649L219.228 108.456V108.07H218.456V107.684H217.491V107.298L216.526 107.105V106.719H215.754V106.333L214.789 106.14L214.018 105.754V105.368H213.053V104.982L212.088 104.789L211.316 104.404V104.018H210.351V103.632L209.579 103.439L209 103.246V102.86L208.035 102.667V102.281H207.07V101.895H206.298V101.509L205.333 101.316V100.93H204.368V100.544L203.211 100.158L202.825 99.9649V99.579H201.86V99.193L200.895 99V98.6141H200.123V98.2281H199.158V97.8421L198.193 97.6491V97.2632H197.421V96.8772H196.456V96.4912L195.491 96.1053L195.105 95.9123V95.5263H194.14V95.1404L193.175 94.9474L192.403 94.5614V94.1755H191.439V93.7895H190.667V93.4035L189.702 93.2105V92.8246H188.93V92.4386L187.965 92.2456L187 91.8597V91.4737H186.228V91.0877H185.263V90.7018L183.526 90.1228V89.7369H182.947V89.3509L181.211 88.772V88.386H180.246V88L179.281 87.807L178.509 87.4211V87.0351L177.544 86.8421L176.772 86.4562V86.0702H175.807V85.6842H175.035V85.2983L174.07 85.1053V84.7193H173.105V84.3334H172.333V83.9474L171.368 83.7544V83.3684H170.596V82.9825H170.018V82.5965L169.053 82.4035L168.088 82.0176V81.6316H167.316V81.2456H166.351V80.8597L165.386 80.6667V80.2807H164.614V79.8948L163.649 79.7018V79.3158H162.877V78.9299H161.912V78.5439L161.14 78.3509L160.175 77.9649V77.579H159.211V77.193L157.474 76.6141V76.2281H156.895V75.8421L155.93 75.6492L155.158 75.2632V74.8772H154.193V74.4913H153.421V74.1053L152.456 73.9123L151.684 73.5263V73.1404H150.719V72.7544L149.754 72.5614V72.1755H148.982V71.7895H148.018V71.4035L147.246 71.0176L146.667 70.8246V70.4386H146.281L145.702 69.4737V69.0877H145.316V67.7369H144.93V64.6492H145.316V63.2983H145.702L146.088 62.3334L146.281 61.9474H146.667V61.5614L147.439 60.9825H148.018V60.5965L149.754 60.0176V59.6316H150.719V59.2456H151.491V58.8597L152.456 58.6667V58.2807H153.228V57.8948L154.193 57.5088L155.158 57.3158V56.9299H155.93V56.5439L157.86 55.9649V55.579H158.632V55.193L160.561 54.6141V54.2281H161.14V53.8421H161.912V53.4562L163.649 52.8772V52.4913H164.614V52.1053L166.351 51.5263V51.1404H167.316V50.7544L169.053 50.1755V49.7895H170.018V49.4035H170.789V49.0176L171.754 48.8246V48.4386H172.526V48.0527L173.684 47.4737H174.456V47.0877H175.228V46.7018L176.386 46.1228H177.158V45.7369H177.93V45.3509L179.088 44.772H179.86V44.386H180.632V44L182.561 43.0351H183.14V42.6492H183.912V42.2632L185.263 41.6842H185.842V41.2983H186.614V40.9123L187.579 40.3334H188.351V39.9474H189.316V39.5614L190.281 38.9825H191.053V38.5965H192.018V38.2106L192.982 37.6316H193.754V37.2456H194.719V36.8597L195.684 36.2807H196.456V35.8948H197.228V35.5088L198.193 35.3158V34.9299H198.965V34.5439H199.93V34.1579L200.895 33.9649V33.579H201.667V33.193H202.632V32.807L203.596 32.6141V32.2281H204.368V31.8421H205.333V31.4562H205.912V31.0702L206.877 30.8772V30.4913H207.649V30.1053H208.614V29.7193L209.579 29.1404H210.351V28.7544L212.088 28.1755V27.7895H213.053V27.4035H214.018V27.0176L214.982 26.4386H215.754V26.0527H216.526V25.6667L217.491 25.4737V25.0878H218.456V24.7018H219.228V24.3158L220.193 24.1228V23.7369H220.965V23.3509L222.895 22.772L223.86 22.579Z" fill="white"/>
<path d="M15.2456 24.1228L17.1754 24.3158V24.7018H18.3333V25.0877L19.2982 25.2807L20.2631 25.8596L21.0351 26.0526V26.4386L22 26.6316L22.9649 27.2105L23.7368 27.4035V27.7895H24.7017V28.1754L25.6666 28.3684V28.7544H26.6316V29.1403H27.4035V29.5263L29.1403 30.1053V30.4912H30.1052V30.8772L31.0702 31.0702L31.8421 31.4561V31.8421H32.807V32.2281L33.7719 32.421L34.5438 32.807V33.193H35.5087V33.5789L36.6666 33.7719L37.6316 34.1579V34.5439H38.5965V34.9298L40.3333 35.5088V35.8947H41.2982V36.2807L43.0351 36.8596V37.2456H44V37.6316L44.9649 37.8246L45.7368 38.2105V38.5965H46.7017V38.9825L47.6666 39.1754L48.6316 39.7544L49.4035 39.9474V40.3333L50.3684 40.5263L51.1403 40.9123V41.2982H52.1052V41.6842L53.0702 41.8772L53.8421 42.2632V42.6491H54.807V43.0351H55.7719V43.421L56.5438 43.614L57.8947 44V44.386H58.6666V44.7719L59.6316 44.9649V45.3509H60.4035V45.7368H61.3684V46.1228L62.3333 46.3158V46.7017H63.1052V47.0877H64.0702V47.4737L65.0351 47.6667V48.0526H66V48.4386H66.7719V48.8246H67.7368V49.2105L68.7017 49.4035V49.7895H69.6666V50.1754H70.4386V50.5614L71.4035 50.7544V51.1403H72.3684V51.5263H73.1403V51.9123L74.1052 52.1053V52.4912H74.8772V52.8772H75.8421V53.2632L76.807 53.4561V53.8421H77.9649V54.2281L78.9298 54.421V54.807L79.8947 55L80.6666 55.193V55.5789L81.6316 55.7719V56.1579L82.5965 56.3509L83.3684 56.5439V56.9298L84.3333 57.1228L85.2982 57.7017L86.0702 57.8947V58.2807H87.0351V58.6667L88 58.8596V59.2456H88.9649V59.6316H89.7368V60.0175L91.4737 60.5965V60.9825H92.4386V61.3684L93.2105 61.7544L93.4035 62.3333H93.7895V62.7193H94.1754V63.2982H94.5614L95.1403 65.0351V67.3509L94.5614 69.0877H94.1754V69.4737H93.7895V70.0526H93.4035V70.4386H92.8245V70.8246H92.4386V71.2105L91.4737 71.4035V71.7895H90.7017V72.1754H89.7368V72.5614L88.7719 72.7544V73.1403H88V73.5263H87.0351V73.9123L86.0702 74.1053V74.4912H85.2982V74.8772H84.3333V75.2632L83.3684 75.4561V75.8421H82.4035V76.2281H81.6316V76.614L80.2807 77.193H79.7017V77.5789H78.9298V77.9649L77.5789 78.5439H77V78.9298H76.2281V79.3158L74.8772 79.8947H74.2982V80.2807H73.5263V80.6667L72.1754 81.2456H71.5965V81.6316H70.8245V82.0175L69.0877 82.5965V82.9824H68.1228V83.3684L66.3859 83.9474V84.3333H65.421V84.7193L63.6842 85.2982V85.6842H62.7193V86.0702L61.3684 86.6491L60.5965 87.0351H60.0175V87.421L58.6666 88L57.8947 88.386H57.3158V88.7719L55.9649 89.3509L55.193 89.7368H54.614V90.1228L52.4912 90.7018V91.0877H51.7193V91.4737H50.7544V91.8596L49.7895 92.0526V92.4386H49.0175V92.8246H48.0526V93.2105L47.0877 93.4035V93.7895H46.3158V94.1754H45.3509V94.5614L44.3859 94.7544V95.1403H43.614V95.5263H42.6491V95.9123L41.6842 96.1053V96.4912H40.9123V96.8772H39.9473V97.2632L38.9824 97.4561V97.8421H38.2105V98.2281H37.2456V98.614L35.5087 99.193V99.5789H34.5438V99.9649L32.807 100.544V100.93H31.8421V101.316L30.1052 101.895V102.281H29.1403V102.667H28.3684V103.053L27.4035 103.246V103.632H26.4386V104.018H25.6666V104.404L24.7017 104.596V104.982H23.7368V105.368L22 105.947V106.333H21.0351V106.719L19.2982 107.298V107.684H18.3333V108.07H17.3684V108.456L16.5965 108.649H14.2807L12.5438 108.07V107.684H11.7719L11.193 107.105V106.719H10.807V106.333H10.421L10.228 105.368H9.84208V104.018H9.45612V101.316H9.84208V100.351L10.228 99.5789H10.807V99H11.193V98.614H11.5789V98.2281H12.1579V97.8421L13.1228 97.2632H13.8947V96.8772H14.6666V96.4912L15.8245 95.9123H16.5965V95.5263H17.3684V95.1403L18.5263 94.5614H19.2982V94.1754H20.0702V93.7895L21.228 93.2105H22V92.8246H22.7719V92.4386L24.7017 91.4737H25.4737V91.0877L27.4035 90.1228H28.1754V89.7368L30.1052 88.7719H30.8772V88.386L32.807 87.421H33.5789V87.0351H34.5438V86.6491L35.5087 86.0702H36.2807V85.6842H37.2456V85.2982L38.2105 84.7193H38.9824V84.3333H39.9473V83.9474L41.6842 83.3684V82.9824H42.6491V82.5965L44.3859 82.0175V81.6316H45.3509V81.2456H46.1228V80.8596L47.0877 80.6667V80.2807H48.0526V79.8947H48.8245V79.5088L49.7895 79.3158V78.9298H50.7544V78.5439H51.5263V78.1579L52.4912 77.9649V77.5789H53.4561V77.193H54.228V76.807L55.193 76.614V76.2281H56.1579V75.8421H56.9298V75.4561L57.8947 75.2632V74.8772H58.6666V74.4912H59.6316V74.1053L60.5965 73.9123V73.5263H61.3684V73.1403H62.3333V72.7544L63.6842 72.1754H64.2631V71.7895H65.0351V71.4035L66.3859 70.8246H66.9649V70.4386H67.7368V70.0526L69.0877 69.4737H69.6666V69.0877H70.8245V68.7017L71.7895 68.1228H72.5614V67.7368H73.5263V67.3509L74.4912 66.7719H75.2631V66.386H75.8421V66L74.8772 65.807V65.421H74.1052V65.0351H73.1403V64.6491L72.1754 64.4561V64.0702H71.4035V63.6842H70.4386V63.2982L69.4737 63.1053L68.5088 62.5263L67.7368 62.3333V61.9474L66.7719 61.7544L65.807 61.3684V60.9825H65.0351V60.5965H64.0702V60.2105L63.1052 60.0175V59.6316H62.3333V59.2456H61.3684V58.8596L59.6316 58.2807V57.8947H58.6666L57.5088 57.3158V56.9298H56.5438V56.5439L55.5789 56.3509L54.807 55.9649V55.5789H53.8421V55.193L52.8772 55L52.1052 54.614V54.2281H51.1403V53.8421H50.3684V53.4561L49.4035 53.2632V52.8772H48.4386V52.4912H47.4737V52.1053L45.7368 51.5263V51.1403H44.7719V50.7544H44V50.3684L43.0351 50.1754V49.7895H42.0702V49.4035H41.2982V49.0175L40.3333 48.8246V48.4386H39.3684V48.0526L38.2105 47.8596L37.2456 47.4737V47.0877H36.4737V46.7017L35.5087 46.5088L34.5438 46.1228V45.7368H33.7719V45.3509L32.807 45.1579L31.8421 44.7719V44.386H31.0702V44H30.1052V43.614L29.1403 43.421V43.0351H28.3684V42.6491H27.4035V42.2632L26.4386 42.0702V41.6842H25.4737V41.2982H24.7017V40.9123L23.7368 40.7193L22.7719 40.3333V39.9474H22V39.5614L21.0351 39.3684L20.0702 38.9825V38.5965H19.2982V38.2105L18.3333 38.0175L17.1754 37.6316V37.2456H16.2105V36.8596L14.4737 36.2807V35.8947H13.5087V35.5088L12.5438 35.3158V34.9298H11.9649V34.5439H11.3859L10.614 33.5789V33.193H10.228L9.84208 32.2281V31.4561H9.45612V28.5614H9.84208V27.4035H10.228L10.614 26.4386L10.807 26.0526H11.193V25.6667L11.7719 25.0877H12.5438V24.7018H13.5087V24.3158L15.2456 24.1228Z" fill="white"/>
<path d="M179.088 24.1228L181.211 24.3158V24.7018H182.175V25.0877H182.561V25.4737L183.333 25.6667V26.0526H183.719L183.912 26.8246H184.298V27.4035H184.684L185.263 30.1053L184.684 32.421L184.298 33.193H183.912L183.526 34.1579H183.14V34.5439H182.561V34.9298L181.596 35.5088H181.211V35.8947H180.246V36.2807L178.509 36.8596V37.2456H177.158V37.6316L176.193 38.2105H175.421V38.5965H174.456V38.9825H173.684V39.3684L172.719 39.5614V39.9474H171.754V40.3333H170.982V40.7193L170.018 40.9123V41.2982H169.053V41.6842H168.281V42.0702L167.316 42.2632V42.6491H166.351V43.0351H165.579V43.421L164.614 43.614V44H163.649V44.386L162.298 44.9649L161.526 45.3509H160.947V45.7368L159.596 46.3158L158.825 46.7017H158.246V47.0877H157.281V47.4737H156.509V47.8596L155.544 48.0526V48.4386L154.579 48.8246H153.807V49.2105L152.842 49.4035V49.7895H151.877V50.1754H151.105V50.5614L150.14 50.7544V51.1403H149.368V51.5263L148.018 51.7193V52.1053H147.246V52.4912H146.281V52.8772L145.316 53.0702V53.4561H144.351V53.8421H143.579V54.2281L142.228 54.807L141.649 55.193H140.877V55.5789L139.526 56.1579L138.947 56.5439H138.175V56.9298L136.825 57.5088L136.246 57.8947H135.474V58.2807L134.123 58.8596H133.544V59.2456H132.772V59.6316H131.807V60.0175L130.649 60.5965H130.07V60.9825H129.105V61.3684L127.368 61.9474V62.3333H126.404V62.7193L125.439 63.1053L124.667 63.2982V63.6842H123.702V64.0702L122.737 64.4561L121.965 64.6491V65.0351H121V65.421L120.035 65.807L119.263 66V66.386H119.842V66.7719L120.807 66.9649L121.579 67.3509V67.7368H122.544V68.1228H123.316V68.5088L124.281 68.7017V69.0877H125.246V69.4737H126.018V69.8596L126.982 70.0526V70.4386H127.947V70.8246H128.719V71.2105L129.684 71.4035V71.7895H130.649V72.1754H131.421V72.5614L132.386 72.7544V73.1403H133.351V73.5263H134.123V73.9123L135.088 74.1053V74.4912H136.053V74.8772H136.825V75.2632L137.789 75.4561V75.8421H138.561V76.2281H139.526V76.614L141.263 77.193V77.5789H142.228V77.9649L143.965 78.5439V78.9298H144.93V79.3158L145.895 79.5088L146.667 79.8947V80.2807H147.632V80.6667L148.596 80.8596L149.368 81.2456V81.6316H150.333V82.0175L151.298 82.2105L152.07 82.5965V82.9824H153.035V83.3684L154 83.5614L154.772 83.9474V84.3333H155.737V84.7193H156.509V85.1053L157.474 85.2982V85.6842H158.439V86.0702H159.211V86.4561L160.175 86.6491V87.0351H161.14V87.421H161.912V87.807L162.877 88V88.386H163.842V88.7719H164.614V89.1579L165.579 89.3509V89.7368H166.544V90.1228H167.316V90.5088L168.281 90.7018V91.0877H169.246V91.4737H170.018V91.8596L171.754 92.4386V92.8246H172.719V93.2105L174.456 93.7895V94.1754H175.421V94.5614L176.386 94.7544L177.158 95.1403V95.5263H178.123V95.9123L179.088 96.1053L179.86 96.4912V96.8772H180.825V97.2632L181.789 97.4561L182.561 97.8421V98.2281H183.14V98.614H183.526L183.912 99.5789H184.298L184.877 100.93L185.07 103.439L184.298 105.947H183.912L183.719 106.719H183.333V107.105H182.947V107.491L182.175 107.684V108.07H181.211V108.456L180.246 108.649H178.123L177.158 108.456V108.07H176.386V107.684H175.421V107.298L174.456 107.105V106.719H173.684V106.333H172.719V105.947L171.754 105.754V105.368H170.982V104.982H170.018V104.596L169.053 104.404V104.018H168.281V103.632H167.316V103.246L166.351 103.053V102.667H165.579V102.281H164.614V101.895L163.842 101.702L162.877 101.316V100.93H161.912V100.544L160.175 99.9649V99.5789H159.211V99.193L157.474 98.614V98.2281H156.509V97.8421L155.737 97.6491L154.772 97.2632V96.8772H153.807V96.4912L153.035 96.2982L152.07 95.9123V95.5263H151.105V95.1403L150.333 94.9474L149.368 94.5614V94.1754H148.404V93.7895L146.667 93.2105V92.8246H145.895V92.4386L144.93 92.2456L143.965 91.8596V91.4737H143V91.0877H142.228V90.7018L141.263 90.5088V90.1228H140.298V89.7368H139.526V89.3509L138.561 89.1579V88.7719H137.596V88.386H136.825V88L135.86 87.807V87.421H135.088V87.0351H134.123V86.6491L133.158 86.4561V86.0702H132.386V85.6842H131.421V85.2982L130.456 85.1053V84.7193H129.684V84.3333H128.719V83.9474L127.754 83.7544L126.982 83.3684V82.9824H126.018V82.5965L125.053 82.4035L124.281 82.0175V81.6316H123.316V81.2456L122.351 81.0526L121.579 80.6667V80.2807H120.614V79.8947H119.842V79.5088L118.877 79.3158V78.9298H117.912V78.5439H117.14V78.1579L116.175 77.9649V77.5789H115.211V77.193H114.439V76.807L113.474 76.614V76.2281H112.509V75.8421H111.737V75.4561L110.772 75.2632V74.8772H109.807V74.4912H109.035V74.1053L108.07 73.9123V73.5263H107.105V73.1403H106.333V72.7544L105.368 72.5614V72.1754H104.404V71.7895H103.632V71.4035L102.667 71.2105V70.8246H102.281V70.4386H101.702V70.0526H101.316V69.4737H100.93V69.0877H100.544L99.9649 67.1579V65.0351L100.544 63.2982H100.93V62.7193H101.316V62.3333H101.702L101.895 61.7544H102.281V61.3684H102.667V60.9825H103.439V60.5965L105.368 60.0175V59.6316H106.333V59.2456H107.105V58.8596L108.263 58.2807H109.035V57.8947H109.807V57.5088L110.965 56.9298H111.737V56.5439H112.509V56.1579L113.474 55.9649V55.5789H114.439V55.193H115.211V54.807L116.175 54.614V54.2281H117.14V53.8421H117.912V53.4561H118.877V53.0702L119.842 52.8772V52.4912H120.807V52.1053H121.579V51.7193L122.737 51.5263V51.1403H123.702V50.7544L124.667 50.5614V50.1754H125.439V49.7895H126.404V49.4035L127.368 49.2105V48.8246H128.14V48.4386H129.105V48.0526L130.07 47.8596V47.4737H130.842V47.0877H131.807V46.7017L133.737 45.7368H134.509V45.3509L136.246 44.7719V44.386H137.211V44H138.175V43.614L139.14 43.0351H139.912V42.6491H140.877V42.2632L141.842 41.6842H142.614V41.2982H143.579V40.9123L144.544 40.3333H145.316V39.9474H146.281V39.5614L147.246 38.9825H148.018V38.5965H148.982V38.2105L149.947 37.8246L150.719 37.6316V37.2456H151.877V36.8596L153.035 36.2807H153.807V35.8947H154.579V35.5088L155.737 34.9298H156.509V34.5439H157.281V34.1579L158.439 33.5789H159.211V33.193H159.982V32.807L161.14 32.2281H161.912V31.8421H162.684V31.4561L163.842 30.8772H164.614V30.4912H165.386V30.1053L167.316 29.5263V29.1403H168.088V28.7544H169.053V28.3684L170.018 28.1754V27.7895H170.789V27.4035H171.754V27.0175L172.719 26.8246V26.4386H173.491V26.0526H174.456V25.6667L175.421 25.4737V25.0877H176.193V24.7018L177.544 24.3158L179.088 24.1228Z" fill="white"/>
<path d="M107.684 145.316H115.596L115.789 188.93H116.175V191.053H116.561V192.018H116.947L117.14 192.982H117.526V193.754H117.912V194.14L118.491 194.333V194.719H118.877V195.105H119.456V195.491L121.193 196.07V196.456H126.789V196.07L128.14 195.684L128.719 195.491V195.105H129.298V194.719H129.684V194.333H130.07V193.754H130.456L131.035 192.018H131.421V190.667H131.807V189.316L132.193 187.386L132.386 145.316H140.298V188.351H139.912V191.439H139.526V192.982L138.754 194.719L138.561 195.491H138.175V196.456H137.789L137.211 198.193H136.825V198.579H136.439L136.246 199.158H135.86V199.544H135.474L135.088 200.509H134.509V200.895L133.544 201.474H133.158V201.86H132.386V202.246H131.421V202.632L130.07 202.825V203.211H128.333V203.596H119.842V203.211H118.298L116.754 202.632V202.246H115.789V201.86H114.825V201.474L114.053 201.088L113.474 200.895V200.509H113.088V200.123L112.509 199.93V199.544H112.123V199.158H111.737L111.158 198.386V197.807H110.772V197.421H110.386V196.456H110L109.421 195.491V194.526H109.035L108.649 193.175L108.263 191.439L108.07 191.246V188.351H107.684V145.316Z" fill="white"/>
<path d="M52.4912 145.316H62.3333V145.702H62.7193L63.1053 147.632L63.2983 148.018V149.368H63.6842V151.105H64.0702L64.4561 153.035L64.6491 153.421V154.772H65.0351V156.509H65.4211L65.807 158.439L66 158.825V160.175H66.386V162.298H66.7719L67.3509 164.614V165.965H67.7368V167.702H68.1228L68.5088 169.439L68.7018 170.018V171.368H69.0877V173.105H69.4737L69.8597 174.842L70.0526 175.421V176.772H70.4386V178.509H70.8246L71.2105 180.246L71.5965 182.175L71.7895 182.368V183.912H72.1754L72.3684 185.649L72.7544 186.614L73.1404 187.772V189.316H73.5263L73.7193 191.053L74.1053 192.404L74.4912 193.368V195.105H74.8772L75.4561 197.807L75.8421 198.772V200.509H76.2281L76.614 202.825L76.2281 203.018H68.3158L68.1228 202.825V201.86H67.7368V200.123H67.3509L66.7719 197.421V196.07H66.386V194.14H66V192.404H65.614L65.4211 191.632V190.281H65.0351V188.351H64.6491L64.4561 186.228H50.7544V187.579L50.3684 188.737L50.1754 190.088H49.7895V192.018H49.4035V193.754L49.0175 194.719L48.8246 196.07H48.4386V198.193H48.0526V199.544L47.6667 200.509L47.2807 202.246L47.0877 203.018H38.5965V201.86H38.9825V200.509L39.3684 199.544L39.5614 198.193H39.9474V196.456H40.3333V194.719L40.7193 193.754L41.1053 192.404L41.2983 190.667H41.6842V189.316L42.2632 187H42.6491V185.263H43.0351V183.526H43.4211L43.614 181.597H44V179.86H44.386V177.93L44.7719 176.772L44.9649 175.807H45.3509V174.07H45.7368V172.333H46.1228L46.3158 170.404L46.7018 168.667H47.0877V166.93L47.2807 166.737L47.6667 164.614H48.0526V162.877H48.4386V161.333L48.6316 161.14L49.0175 159.211H49.4035V157.474H49.7895V155.544H50.1754V154.193L50.7544 152.07H51.1404V149.947H51.5263L51.7193 148.018L52.1053 146.281H52.4912V145.316ZM57.5088 152.842L56.9298 155.158V157.474H56.5439L56.3509 159.404L56.1579 159.596L55.9649 161.912H55.579V164.035H55.193V165.965H54.807L54.4211 168.281L54.2281 168.667V170.404H53.8421V172.333H53.4561L53.0702 174.456L52.8772 174.842V176.772H52.4912V178.895H62.7193V177.158L62.5263 176.772L62.3333 175.035H61.9474V173.491L61.3684 170.982L61.1754 170.789L60.9825 169.053H60.5965V167.316L59.8246 164.614L59.6316 162.877H59.2456V160.947H58.8597L58.6667 158.246L58.4737 157.86L58.2807 155.737H57.8947V153.035L57.5088 152.842Z" fill="white"/>
<path d="M9.8421 145.316H25.4737V145.702H27.2105L29.1403 146.281V146.667H30.4912V147.053L31.4561 147.246L32.2281 147.632V148.018H32.807V148.404H33.193V148.789L33.9649 148.982V149.368H34.5439V149.947H34.9298L35.5088 150.719V151.105H35.8947V151.684H36.2807L36.6667 152.649L36.8596 153.421H37.2456V154.772H37.6316V156.123H38.0175L38.2105 156.895V158.825H38.5965V166.351H38.2105V168.281L38.0175 169.053H37.6316V170.404H37.2456V171.754H36.8596L36.6667 172.719L36.2807 173.684H35.8947V174.456H35.5088L35.1228 175.421L34.9298 175.807H34.5439V176.193H34.1579V176.772H33.5789V177.158H33.193V177.544L32.4211 178.123H32.0351V178.509H31.2632V178.895L30.1053 179.474H29.5263V179.86H28.3684V180.246L27.0175 180.439L26.0526 180.825H24.1228V181.211H17.9474V202.825L17.3684 203.018H10.0351L9.8421 202.825V145.316ZM17.9474 152.07V174.07H23.7368L26.4386 173.105V172.719L27.2105 172.526L27.7895 172.14V171.754H28.1754L28.7544 170.982V170.404H29.1403L29.9123 168.281L30.1053 168.088V166.351H30.4912V159.211H30.1053V157.474H29.7193L29.5263 156.509L29.1403 155.544H28.7544L28.5614 154.772H28.1754V154.386L27.4035 154.193V153.807H27.0175V153.421H26.0526V153.035L24.7018 152.456H22V152.07H17.9474Z" fill="white"/>
<path d="M79.8947 145.316H87.807L88 195.877H103.439L103.632 196.07V202.825L103.439 203.018H79.8947V145.316Z" fill="white"/>
<path d="M15.4386 48.0526H16.5965V48.4386H17.9474V48.8245L18.9123 49.0175V49.4035H19.2982V49.7895H19.8772V50.1754H20.2632V50.5614H20.6491V51.1403H21.0351L21.614 52.4912V64.2631H22V80.2807H21.614L21.421 81.6316H21.0351V82.2105H20.6491V82.9824H20.0702V83.3684L19.2982 83.5614V83.9473H18.7193V84.3333H17.5614V84.7193H14.2807V84.3333H13.1228V83.9473H12.5439V83.5614L11.7719 83.3684L11.5789 82.5965H11.193V82.0175H10.807V81.2456H10.421L10.0351 79.8947L9.8421 77.5789V52.4912L10.421 51.1403H10.807V50.5614H11.193V50.1754H11.5789V49.7895H11.9649V49.4035H12.5439V48.8245H13.5088V48.4386H15.4386V48.0526Z" fill="white"/>
<path d="M223.088 48.0526H224.246V48.4386H225.982V48.8245L226.947 49.0175V49.4035H227.526V49.7895H227.912V50.1754H228.298V50.7544H228.684V51.1403H229.07L229.263 52.4912H229.649V72.3684H230.035V79.7017H229.649V81.2456H229.263V82.0175L228.684 82.5965H228.298V82.9824H227.912L227.719 83.5614H227.333V83.9473H226.947V84.3333H225.596V84.7193H222.509V84.3333H221.158V83.9473L220.193 83.5614L219.807 83.3684V82.9824H219.421L219.228 82.2105H218.842V81.6316H218.456V80.2807H218.07L217.877 74.8772V52.4912L218.07 51.9123H218.456V51.1403H218.842L219.035 50.3684L219.421 49.7895H219.807V49.4035L220.772 48.8245H221.544V48.4386H223.088V48.0526Z" fill="white"/>
<path d="M149.754 143.193H159.596L160.175 143.386L162.298 143.579V143.965H163.649L164.614 144.351V144.737L165.579 144.93V145.316H166.351V145.702H166.93V146.088L167.702 146.281V146.667H168.088L168.667 147.246V148.018H169.053V148.404H169.439L170.018 149.368V149.947H170.403L171.175 152.456L171.368 152.649V155.351H171.754V158.632H171.368V161.526H170.982L170.789 163.263H170.403V164.228H170.018V165H169.632L169.439 165.965H169.053V166.351H168.667V166.93L167.702 167.316V167.702H167.316V168.088L166.737 168.667H165.965V169.053L164.228 170.018H163.263V170.404L160.561 170.982L158.246 171.175H149.947L149.368 170.982V143.386L149.754 143.193ZM153.035 146.088L152.842 146.281V168.088L153.035 168.281H158.825L160.561 168.088V167.702H161.912V167.316L163.263 167.123L164.614 166.351V165.965H165V165.579L165.579 165.386V165H165.965V164.614H166.351L166.93 163.649V162.877H167.316V161.912H167.702L167.895 160.175L168.088 159.789V154.193L167.702 152.456H167.316V151.105H166.93L166.544 150.14L166.351 149.754H165.965V148.982L165.193 148.404H164.614V148.018H164.228V147.632L163.263 147.439V147.053H162.491V146.667H161.14V146.281L159.211 146.088H153.035Z" fill="white"/>
<path d="M149.368 175.421H160.561V175.807H162.491L164.228 176.579L165 176.772V177.158H165.965V177.544L166.737 177.93L166.93 178.509H167.702L168.088 179.474H168.667V180.246H169.053L169.632 181.21V181.596H170.018V182.175H170.403V183.526H170.789L170.982 185.263H171.368V192.982L170.789 195.105H170.403V196.07H170.018L169.825 197.035L169.439 197.807H169.053V198.386H168.667L168.088 199.544H167.702V199.93L166.93 200.509H166.351V200.895H165.965V201.281L165 201.474V201.86H164.035V202.246L162.684 202.632L160.561 203.21H149.368V175.421ZM152.649 178.123L152.456 178.509V200.316L152.649 200.509H159.403L160.561 200.123L162.684 199.544V199.158L163.649 198.965L164.228 198.579V198.193H165V197.807H165.386L165.965 197.228V196.456H166.351V195.877H166.737L166.93 194.719H167.316V193.754H167.702L168.088 191.246V187L167.702 184.877H167.316V183.719L166.737 182.561H166.351V181.982H165.965V181.21H165.386V180.825H165V180.439L164.228 180.246V179.86H163.649V179.474L162.298 178.895H161.526V178.509H158.825V178.123H152.649Z" fill="white"/>
<path d="M189.316 175.421H192.404V175.807H192.789L192.982 177.158H193.368V178.123H193.754V179.474H194.14L194.719 180.825V181.789H195.105V182.947H195.491L196.07 184.298V185.263H196.456V186.228H196.842L197.228 187.579L197.421 188.737H197.807V189.702H198.193L198.772 191.439L199.158 192.403V193.368H199.544L200.316 195.684L200.509 195.877V196.842H200.895V197.807H201.281L201.474 199.158H201.86V200.123H202.246L202.632 201.474L202.825 202.632H203.211V203.21H199.737L199.544 202.246H199.158V200.895H198.772L198.193 199.544V198.579H197.807V197.421H197.421V196.456H197.035L196.842 195.105H196.456V194.526H185.263V195.105H184.877L184.684 196.456H184.298V197.421H183.912V198.579H183.526V199.544L183.14 199.93L182.947 200.895H182.561V202.246H182.175L181.982 203.21H178.509V202.825H178.895L179.088 201.86L179.474 200.509H179.86V199.544H180.246L180.439 198.193L180.825 197.228H181.211V196.07H181.597L181.789 194.719L182.175 193.754H182.561V192.403H182.947L183.14 191.439L183.719 190.088L183.912 189.123H184.298L184.491 187.965L184.877 186.614H185.263V185.649H185.649V184.684L186.228 183.333H186.614V182.175H187V181.21H187.386L187.579 179.86H187.965V178.509H188.351V177.544H188.737L189.123 176.193L189.316 175.421ZM190.667 179.088L190.281 180.439L189.702 182.175V183.333H189.316V184.298H188.93L188.737 185.649H188.351V187H187.965L187.386 188.737V189.316H187V190.474H186.614V191.439H195.491V191.053H195.105V190.088H194.719L194.526 188.737L194.14 187.579H193.754V186.421H193.368V185.263H192.982L192.789 183.912H192.404V182.947H192.018V181.596H191.632L191.439 179.86H191.053V179.088H190.667Z" fill="white"/>
<path d="M182.561 143.193H197.807V143.579H198.193V145.702H197.807V146.088L185.649 146.281V155.158H197.228L197.421 155.351V157.86H185.649L185.842 168.088L197.807 168.281V168.667H198.193V170.789H197.807V171.175H182.561V143.193Z" fill="white"/>
<path d="M205.333 143.193H208.421L208.614 143.965H209V145.316H209.386L209.965 147.053V148.018H210.351V148.982H210.737L211.316 150.719V151.684H211.702V153.035H212.088L212.667 154.772V155.544H213.053V156.702H213.439V157.86H213.825L214.404 159.597V160.561H214.79L215.368 162.298V163.263H215.754V164.614H216.14L216.526 166.351L216.912 166.737L217.105 165H217.491V163.842L218.07 162.298H218.456V160.947H218.842V159.789L219.614 158.246L219.807 157.088H220.193V156.123H220.579L220.772 154.772L221.158 153.421H221.544V152.07H221.93L222.123 150.719H222.509V149.368H222.895V148.404H223.281L223.474 147.053L223.86 145.702H224.246V144.544H224.632V143.579L225.211 143.193H228.298V143.965H227.912L227.719 145.316L227.333 146.667H226.947V147.632H226.561L226.368 148.982L225.982 150.333H225.597V151.491H225.211V152.649L224.825 153.035L224.632 153.807H224.246V155.158H223.86L223.667 156.509L223.281 157.86H222.895V159.211H222.509V160.175H222.123L221.93 161.526H221.544V162.684H221.158V163.842L220.386 165.386L220.193 166.351H219.807V167.702H219.421L219.228 169.053H218.842V170.404H218.456V170.982L217.877 171.175H215.368L214.79 170.789V169.825H214.404V168.667H214.018L213.632 167.316L213.439 167.123V165.965H213.053V165H212.667L212.088 163.263V162.298H211.702V161.14H211.316L210.737 159.211V158.632H210.351V157.281H209.965L209.386 155.737V154.772H209V153.807H208.614V152.456H208.228L207.649 150.719V149.754H207.263L206.684 148.018L206.298 147.246V146.088H205.912V144.93H205.526L205.333 143.193Z" fill="white"/>
<path d="M208.035 175.421H211.702V176.193H212.088L212.281 177.158H212.667V177.737H213.053V178.509H213.439V179.474H213.825L214.017 180.439H214.403V181.21H214.789L215.368 182.947H215.754V183.912H216.14L217.105 185.649V186.228H217.491L218.07 187.579L218.456 188.351V188.93H219.035L219.807 187.386H220.193V186.614H220.579L220.772 185.649H221.158V184.877H221.544V183.912H221.93L222.509 182.175H222.895V181.596H223.281L223.474 180.632L223.86 179.86H224.246V178.895H224.632V178.123L225.017 177.93L225.21 177.158H225.596V176.386H225.982L226.175 175.421H229.649V176.193H229.263L229.07 177.158H228.684V177.737H228.298V178.509H227.912L227.719 179.474L227.333 180.246H226.947V181.21H226.561L225.982 182.947H225.596V183.526H225.21L225.017 184.491L224.632 185.263H224.246V186.035H223.86L223.667 187H223.281L223.088 187.965L222.895 188.351H222.509V189.316H222.123L221.93 190.088H221.544V191.053H221.158L220.965 191.825L220.772 192.403L220.579 203.21H217.491L217.105 203.018V192.018H216.719L216.526 191.053H216.14V190.088H215.754V189.316H215.368L214.789 188.351V187.772H214.403V187H214.017L213.632 186.035L213.439 185.263H213.053V184.298H212.667L212.474 183.526H212.088V182.947H211.702V181.982H211.316V181.21H210.93L210.737 180.246H210.351V179.474H209.965L209.386 177.737H209V177.158H208.614V176.193H208.228L208.035 175.421Z" fill="white"/>
<path d="M173.491 4.05261H176.193V4.43858L177.544 4.63156L178.123 5.01752V5.40349H178.895V5.78945L179.474 5.98244V6.3684H179.86V7.14033H180.246V8.10524H180.632L180.825 8.49121V12.9298L180.632 13.5088H180.246V14.2807H179.86V15.2456H179.281V15.6316H178.895V16.0175L178.123 16.2105V16.5965H177.544V16.9824L175.807 17.3684H174.07L171.754 16.5965V16.2105L170.982 16.0175V15.6316H170.403V15.2456H170.018V14.4737H169.632L169.053 13.1228V8.10524H169.439L169.632 7.14033H170.018V6.3684H170.403V5.78945H170.982V5.40349H171.368V5.01752L172.526 4.43858H173.491V4.05261Z" fill="white"/>
<path d="M15.8246 116.561H17.5614L19.2982 117.14V117.526H19.8772V117.912H20.6491V118.491H21.0351V118.877H21.421L21.614 119.649H22V120.614H22.386L22.5789 122.544V124.281L22.386 126.018H22V126.982H21.614L21.421 127.754H21.0351V128.333H20.6491V128.719H19.8772V129.105H19.2982V129.491L17.9474 129.684V130.07H15.6316V129.684H14.4737L13.3158 129.105V128.719H12.7368L11.5789 127.368V126.982H11.193V126.018H10.807V120.807H11.193V119.842H11.5789L11.9649 118.877L12.1579 118.491H12.5438V118.105L13.3158 117.912V117.526H14.2807V117.14L15.8246 116.561Z" fill="white"/>
<path d="M223.088 4.05261H224.632V4.43858L225.982 4.63156L226.947 5.01752V5.40349H227.526V5.78945H227.912V6.17542H228.298V6.75437H228.684L229.263 7.71928V8.49121H229.649V11.7719H229.263L229.07 12.9298L228.684 13.8947H228.298V14.2807L227.526 14.8596H226.947V15.2456L225.211 16.0175L224.825 16.2105H222.509L220.965 15.6316V15.2456H220.193V14.8596H219.807V14.4737L219.228 14.2807V13.8947H218.842V13.3158H218.456V12.5438H218.07L217.877 11.7719V8.68419L218.456 7.14033H218.842L219.035 6.3684H219.421L219.807 5.40349H220.579V5.01752L221.544 4.82454V4.43858H223.088V4.05261Z" fill="white"/>
</svg>
